<svg width="166" height="64" fill="none" xmlns="http://www.w3.org/2000/svg"><g clip-path="url('#clip0_724_14183')"><path d="M79.016 53.26a5.103 5.103 0 0 0-1.374.176 6.312 6.312 0 0 0-1.156.434l.347.843a7.473 7.473 0 0 1 1.007-.395c.36-.112.737-.169 1.115-.167.425-.027.845.11 1.17.38.275.254.415.703.415 1.33v.448l-1.287.054c-1.205.035-2.102.25-2.692.641-.283.181-.514.431-.67.727-.154.295-.228.625-.214.957-.017.421.089.838.304 1.203.198.31.487.555.829.702.38.161.792.241 1.207.234.369.008.737-.038 1.092-.137.285-.086.55-.224.784-.407a4.03 4.03 0 0 0 .654-.673h.053l.218 1.084h.818v-4.968c0-.86-.215-1.486-.645-1.877-.43-.391-1.088-.587-1.975-.588Zm1.51 4.512c0 .722-.212 1.263-.633 1.624a2.415 2.415 0 0 1-1.626.54 1.627 1.627 0 0 1-1.025-.3 1.11 1.11 0 0 1-.388-.928c-.01-.22.038-.436.138-.632.1-.195.25-.362.434-.485.38-.264 1.035-.413 1.965-.448l1.136-.047-.002.676ZM85.745 54.542c.388-.23.835-.343 1.288-.326.281.002.561.038.834.107.267.062.529.142.784.24l.342-.928a3.651 3.651 0 0 0-.854-.278 5.158 5.158 0 0 0-1.072-.11 3.933 3.933 0 0 0-1.81.407c-.54.28-.976.718-1.25 1.254-.301.563-.452 1.288-.452 2.175-.026.726.12 1.448.429 2.107.256.527.674.962 1.195 1.244.548.279 1.158.42 1.775.407.367.005.733-.028 1.092-.1a3.56 3.56 0 0 0 .832-.288v-.989c-.28.118-.568.215-.862.29-.35.087-.711.129-1.072.125-.437.015-.867-.1-1.235-.332a1.994 1.994 0 0 1-.741-.959c-.177-.486-.26-1-.248-1.517a4.214 4.214 0 0 1 .255-1.563c.146-.394.416-.732.77-.966ZM93.426 53.26a5.103 5.103 0 0 0-1.374.176 6.312 6.312 0 0 0-1.155.434l.346.843a7.473 7.473 0 0 1 1.008-.395c.36-.112.736-.169 1.114-.167.425-.027.844.11 1.169.38.277.254.416.703.416 1.33v.448l-1.286.054c-1.206.035-2.103.25-2.692.641-.284.181-.515.431-.67.727-.155.295-.229.625-.215.957-.016.421.089.838.304 1.203.199.31.487.555.829.702.381.161.793.241 1.208.234.368.008.736-.038 1.091-.137.285-.086.551-.224.784-.407.244-.198.463-.424.652-.673h.056l.218 1.084h.821v-4.968c0-.86-.215-1.486-.645-1.877-.43-.391-1.09-.587-1.979-.588Zm1.506 4.512c0 .722-.21 1.263-.632 1.624a2.415 2.415 0 0 1-1.626.54 1.627 1.627 0 0 1-1.025-.3 1.112 1.112 0 0 1-.388-.928c-.01-.22.038-.436.138-.632.1-.195.25-.362.434-.485.38-.264 1.036-.413 1.965-.448l1.136-.047-.002.676ZM103.376 53.24c0 .152 0 .35.027.588.027.237.037.43.055.569h-.082a2.506 2.506 0 0 0-1.297-.996 3.112 3.112 0 0 0-1.032-.155 2.853 2.853 0 0 0-1.235.23 2.807 2.807 0 0 0-1.009.736c-.563.644-.844 1.596-.843 2.857.001 1.261.276 2.201.825 2.82.55.635 1.297.951 2.24.95.357.008.712-.046 1.051-.158.28-.094.54-.238.768-.423.209-.17.39-.37.536-.595h.05l.169 1.043h.903v-10.4h-1.126v2.933Zm.014 4.024c0 .877-.165 1.538-.496 1.984-.331.446-.896.67-1.694.67-.699 0-1.219-.246-1.56-.736-.34-.49-.511-1.186-.514-2.087 0-.903.173-1.617.518-2.14.165-.256.396-.463.669-.602a1.75 1.75 0 0 1 .887-.185c.834 0 1.406.25 1.717.75.311.5.469 1.217.473 2.151v.195ZM111.392 53.66a3.08 3.08 0 0 0-1.631-.414 3.055 3.055 0 0 0-1.725.462 2.973 2.973 0 0 0-1.155 1.34 4.81 4.81 0 0 0-.404 2.047 4.33 4.33 0 0 0 .442 2.046c.276.537.712.979 1.25 1.266.576.299 1.22.447 1.87.432.44.006.878-.032 1.31-.114a5.682 5.682 0 0 0 1.118-.36v-.976a6.923 6.923 0 0 1-1.129.374c-.41.09-.83.132-1.25.126-.766 0-1.362-.225-1.787-.674-.425-.45-.644-1.106-.655-1.97h5.148v-.689a3.981 3.981 0 0 0-.357-1.741 2.718 2.718 0 0 0-1.045-1.154Zm-3.725 2.707c.068-.696.28-1.237.638-1.624.183-.195.406-.347.655-.447.249-.1.518-.147.786-.135.371-.016.737.081 1.049.278.277.192.489.462.607.774.141.369.212.76.207 1.154h-3.942ZM122.801 53.246a3.16 3.16 0 0 0-1.401.311 2.306 2.306 0 0 0-1.006.947h-.062a1.81 1.81 0 0 0-.825-.947 3.286 3.286 0 0 0-2.323-.175c-.275.087-.532.22-.761.395-.228.176-.42.393-.564.64h-.061l-.178-1.035h-.912v7.326h1.129v-3.88a4.563 4.563 0 0 1 .201-1.453c.109-.36.337-.674.648-.892a2.11 2.11 0 0 1 1.19-.3 1.72 1.72 0 0 1 .868.196c.233.137.414.345.516.592.127.314.188.65.179.988V60.7h1.122v-4.09c0-.8.162-1.406.489-1.813.327-.407.85-.615 1.57-.615.512 0 .899.148 1.16.445.26.296.391.74.391 1.332V60.7h1.114v-4.793c0-.937-.208-1.613-.625-2.028-.417-.416-1.036-.627-1.859-.633ZM130.612 57.624c-.139.38-.268.75-.387 1.113a25.31 25.31 0 0 0-.272.878h-.048a5.298 5.298 0 0 0-.15-.607 15.153 15.153 0 0 0-.216-.659c-.08-.23-.179-.468-.266-.718l-1.638-4.25h-1.21l2.983 7.339-.407 1.029a3.073 3.073 0 0 1-.387.716c-.14.192-.324.348-.536.457-.227.11-.478.164-.731.158a3.657 3.657 0 0 1-.802-.088v.89a3.84 3.84 0 0 0 .986.12c.411.012.819-.081 1.183-.27a2.44 2.44 0 0 0 .834-.773c.246-.368.448-.763.6-1.177l3.239-8.4h-1.217l-1.558 4.242ZM80.541 18.513a8.634 8.634 0 0 0 4.409 1.154 8.972 8.972 0 0 0 3.662-.759 9.059 9.059 0 0 0 2.958-2.07v-5.795h-3.204v.23h.14c.221-.01.44.042.631.15.164.11.284.272.34.46.077.257.112.525.105.793v4.357c-1.53 1.073-3.096 1.61-4.702 1.61a6.377 6.377 0 0 1-3.462-.955 6.515 6.515 0 0 1-2.374-2.634 8.187 8.187 0 0 1-.853-3.772 9.155 9.155 0 0 1 .83-3.874 7.05 7.05 0 0 1 2.397-2.897 6.22 6.22 0 0 1 3.65-1.092 6.778 6.778 0 0 1 2.5.47c.801.319 1.523.801 2.118 1.416a6.788 6.788 0 0 1 1.46 2.321h.422V5.092a9.457 9.457 0 0 0-2.965-1.95 9.246 9.246 0 0 0-3.65-.736 8.69 8.69 0 0 0-4.408 1.148 8.663 8.663 0 0 0-3.192 3.163 8.476 8.476 0 0 0-1.15 4.31 8.374 8.374 0 0 0 1.17 4.347 8.689 8.689 0 0 0 3.168 3.14ZM97.781 18.513a8.634 8.634 0 0 0 4.409 1.154 8.884 8.884 0 0 0 3.371-.646 8.772 8.772 0 0 0 2.859-1.872 8.602 8.602 0 0 0 1.906-2.808 8.48 8.48 0 0 0 .66-3.313 8.454 8.454 0 0 0-.658-3.313 8.556 8.556 0 0 0-1.907-2.806 8.732 8.732 0 0 0-2.86-1.866 8.857 8.857 0 0 0-3.371-.637 8.69 8.69 0 0 0-4.409 1.148 8.651 8.651 0 0 0-3.192 3.163 8.465 8.465 0 0 0-1.147 4.31 8.389 8.389 0 0 0 1.169 4.347 8.693 8.693 0 0 0 3.17 3.14ZM96.26 7.417a7.082 7.082 0 0 1 2.387-2.908 6.166 6.166 0 0 1 3.637-1.092 6.458 6.458 0 0 1 3.439.93 6.469 6.469 0 0 1 2.386 2.6 8.083 8.083 0 0 1 .859 3.782 9.364 9.364 0 0 1-.818 3.909 7.015 7.015 0 0 1-2.361 2.91 6.173 6.173 0 0 1-3.65 1.092 6.494 6.494 0 0 1-3.474-.943 6.416 6.416 0 0 1-2.38-2.622 8.188 8.188 0 0 1-.854-3.772 9.266 9.266 0 0 1 .83-3.886ZM122.61 17.421h-.424a3.117 3.117 0 0 1-.468.678 1.62 1.62 0 0 1-.643.38c-.353.101-.72.147-1.088.136h-4.675V3.21h-1.988v16.095h9.028l.258-1.884ZM134.973 4.28a9.349 9.349 0 0 0-4.434-1.07h-6.525v16.095h6.525a9.276 9.276 0 0 0 4.434-1.08 8.381 8.381 0 0 0 3.192-2.92 7.618 7.618 0 0 0 1.17-4.053 7.618 7.618 0 0 0-1.17-4.053 8.266 8.266 0 0 0-3.192-2.92Zm1.52 10.416a6.97 6.97 0 0 1-2.42 2.84 6.517 6.517 0 0 1-3.752 1.08h-4.319V3.9h4.326a7.1 7.1 0 0 1 3.648.93 6.477 6.477 0 0 1 2.469 2.554 7.448 7.448 0 0 1 .877 3.598 8.593 8.593 0 0 1-.829 3.714ZM151.44 17.49a3.271 3.271 0 0 1-1.24.878 4.19 4.19 0 0 1-1.508.252h-5.03V8.78h5.38v-.703h-5.38V3.9h4.823c.368-.011.735.035 1.088.137.242.075.462.206.643.381.185.203.341.43.464.674h.42l-.257-1.886h-9.169v16.096h10.082l1.147-3.512h-.422a6.067 6.067 0 0 1-1.041 1.7ZM165.3 3.21v12.28L154.423 3.21h-.357v16.095h.702V7.024l10.877 12.278h.357V3.21h-.702ZM80.54 41.351a8.617 8.617 0 0 0 4.41 1.161 8.972 8.972 0 0 0 3.662-.758 9.063 9.063 0 0 0 2.958-2.069v-2.23h-.422c-.434.815-.999 1.557-1.672 2.197a6.725 6.725 0 0 1-2.143 1.368 6.643 6.643 0 0 1-2.457.46 6.362 6.362 0 0 1-3.462-.956 6.516 6.516 0 0 1-2.374-2.634 8.188 8.188 0 0 1-.854-3.771 9.155 9.155 0 0 1 .831-3.874 7.051 7.051 0 0 1 2.397-2.898 6.233 6.233 0 0 1 3.65-1.092 6.746 6.746 0 0 1 2.5.473c.8.314 1.522.793 2.118 1.404a6.804 6.804 0 0 1 1.46 2.322h.422v-2.529a9.459 9.459 0 0 0-2.961-1.937 9.247 9.247 0 0 0-3.65-.735 8.678 8.678 0 0 0-4.409 1.15 8.729 8.729 0 0 0-4.046 5.27 8.581 8.581 0 0 0 .877 6.548 8.689 8.689 0 0 0 3.166 3.13ZM104.669 26.278v9.91c0 1.673-.413 2.926-1.24 3.76-.826.835-1.949 1.253-3.369 1.254-1.429 0-2.56-.425-3.394-1.276-.833-.852-1.246-2.135-1.24-3.851V26.048H93.44v10.3c0 1.32.25 2.443.749 3.369a4.934 4.934 0 0 0 2.106 2.093 6.683 6.683 0 0 0 3.112.702c1.807 0 3.254-.532 4.339-1.598 1.085-1.065 1.626-2.587 1.625-4.565v-10.3h-.702v.23ZM119.451 39.334a4.955 4.955 0 0 0 .894-2.862c0-1.303-.273-2.35-.819-3.138a4.413 4.413 0 0 0-2.093-1.669 7.167 7.167 0 0 0-2.108-.442c.257-.165.496-.356.714-.569.733-.72 1.099-1.463 1.099-2.23a2.31 2.31 0 0 0-.263-1.107 2.36 2.36 0 0 0-.762-.855c-.686-.505-1.575-.758-2.667-.758a5.793 5.793 0 0 0-2.76.667 5.259 5.259 0 0 0-2.001 1.804 4.506 4.506 0 0 0-.736 2.495v11.473h5.716a7.539 7.539 0 0 0 3.369-.758 6.15 6.15 0 0 0 2.417-2.051Zm-6.034 2.012h-3.485V30.463a4.362 4.362 0 0 1 .479-2.034 4.129 4.129 0 0 1 1.239-1.484 2.62 2.62 0 0 1 1.556-.55 1.963 1.963 0 0 1 1.544.62c.375.413.562.988.562 1.723v.07a2.791 2.791 0 0 1-.223 1.023 2.66 2.66 0 0 1-.736.91c-.46.37-.962.685-1.497.94v.351c1.372 0 2.452.196 3.239.587a3.33 3.33 0 0 1 1.638 1.58c.326.78.481 1.617.455 2.459 0 1.38-.416 2.507-1.25 3.38-.834.873-2.007 1.307-3.521 1.301v.007ZM131.977 40.328a3.274 3.274 0 0 1-1.24.878 4.218 4.218 0 0 1-1.507.253h-5.031v-9.852h5.381v-.684h-5.381v-4.185h4.824c.367-.011.735.035 1.087.139.243.073.464.204.644.38.186.203.344.431.468.677h.421l-.257-1.886h-9.175v16.095h10.082l1.147-3.512h-.421a6.077 6.077 0 0 1-1.042 1.697ZM29.398 2.906c-1.511-.35-3.076-.7-5.063-2.064-.94-.649-1.802-.834-2.43-.525-.489.243-.776.765-.79 1.434-.024 1.111.725 2.72 2.895 3.905a18.84 18.84 0 0 1 2.716 1.815c.618.481 1.105.86 1.724 1.086.126.044.249.098.366.163h.014c.224.115.442.241.652.38l.221.138a18.2 18.2 0 0 0 1.003.593c.678.37 1.397.663 2.143.875.748.207 1.517.331 2.292.369.776.034 1.553 0 2.323-.105a12.525 12.525 0 0 0 2.286-.478 7.044 7.044 0 0 0 2.062-1.01c.305-.219.567-.49.773-.802a1.308 1.308 0 0 0 .218-1.004 1.219 1.219 0 0 0-.341-.58c-1.628-.681-2.944-.891-4.218-1.092-1.543-.245-3-.476-4.723-1.559-1.515-.95-2.781-1.235-4.123-1.54Z" fill="#313552"/><path d="M41.726 9.654c-.029.021-.057.042-.088.061.03-.019.059-.04.088-.06Z" fill="url('#paint0_linear_724_14183')"/><path d="M28.814 8.918c.205.103.409.227.605.35l.2.122c.32.196.665.402 1.017.588.69.37 1.422.664 2.18.874a10.33 10.33 0 0 0 2.322.35c.784.026 1.57-.014 2.347-.119.78-.095 1.548-.262 2.296-.498a7.353 7.353 0 0 0 1.813-.84 7.64 7.64 0 0 1-1.815.836c-.747.235-1.515.4-2.294.495-.777.105-1.562.14-2.346.105a10.431 10.431 0 0 1-2.311-.372 10.522 10.522 0 0 1-2.158-.887 18.634 18.634 0 0 1-1.006-.595c-.288-.19-.586-.365-.893-.525a2.062 2.062 0 0 0-.357-.155c-1.287-.47-1.99-1.575-4.452-2.907-4.697-2.563-3.178-7.447.42-4.965 3.706 2.545 5.916 1.545 9.187 3.595 3.087 1.94 5.265 1.112 8.92 2.641l-.13-.147c-1.57-.635-2.848-.838-4.086-1.035-1.526-.242-2.966-.47-4.656-1.532-1.541-.97-2.822-1.26-4.178-1.566-1.497-.34-3.037-.69-5.002-2.038-.995-.682-1.93-.87-2.613-.521-.55.273-.874.85-.894 1.586-.023 1.162.749 2.84 2.987 4.06a18.375 18.375 0 0 1 2.7 1.793c.63.49 1.127.875 1.772 1.11.115.04.226.09.332.15l.016.008.038.02.039.019Z" fill="url('#paint1_linear_724_14183')"/><path d="M24.387.77c-3.598-2.482-5.116 2.402-.42 4.964 2.462 1.342 3.166 2.437 4.452 2.907.124.041.244.093.357.156.307.16.605.335.893.525.33.206.663.41 1.006.595.683.374 1.407.671 2.158.886.754.21 1.53.336 2.312.373.783.035 1.568 0 2.345-.105.779-.094 1.547-.26 2.294-.495.64-.199 1.25-.48 1.815-.836l.045-.028c.03-.02.059-.04.087-.061l.14-.1c.312-.227.58-.508.793-.827.214-.313.295-.696.223-1.066a1.183 1.183 0 0 0-.27-.507l-.123-.138c-3.655-1.529-5.833-.7-8.92-2.641C30.299 2.32 28.09 3.32 24.388.77ZM42.462 7.1c.166.159.284.36.341.58a1.295 1.295 0 0 1-.218 1.003 3.083 3.083 0 0 1-.773.803 7.046 7.046 0 0 1-2.062 1.006c-.742.234-1.504.399-2.278.492-.769.104-1.546.14-2.322.104a10.417 10.417 0 0 1-2.292-.369 10.45 10.45 0 0 1-2.143-.874 15.386 15.386 0 0 1-1.003-.593l-.221-.138a6.852 6.852 0 0 0-.652-.38h-.014a2.2 2.2 0 0 0-.367-.163c-.618-.225-1.105-.605-1.724-1.086A18.846 18.846 0 0 0 24.02 5.67c-2.17-1.185-2.919-2.8-2.896-3.905.015-.67.302-1.19.79-1.434.629-.311 1.491-.126 2.431.525 1.987 1.368 3.551 1.721 5.063 2.064 1.341.304 2.608.591 4.123 1.543 1.722 1.082 3.18 1.313 4.723 1.558 1.265.187 2.581.397 4.209 1.08Z" fill="#313552"/><path d="M24.387.77c-3.598-2.482-5.116 2.402-.42 4.964 2.462 1.342 3.166 2.437 4.452 2.907.124.041.244.093.357.156.307.16.605.335.893.525.33.206.663.41 1.006.595.683.374 1.407.671 2.158.886.754.21 1.53.336 2.312.373.783.035 1.568 0 2.345-.105.779-.094 1.547-.26 2.294-.495.64-.199 1.25-.48 1.815-.836l.045-.028c.03-.02.059-.04.087-.061l.14-.1c.312-.227.58-.508.793-.827.214-.313.295-.696.223-1.066a1.183 1.183 0 0 0-.27-.507l-.123-.138c-3.655-1.529-5.833-.7-8.92-2.641C30.299 2.32 28.09 3.32 24.388.77ZM42.462 7.1c.166.159.284.36.341.58a1.295 1.295 0 0 1-.218 1.003 3.083 3.083 0 0 1-.773.803 7.046 7.046 0 0 1-2.062 1.006c-.742.234-1.504.399-2.278.492-.769.104-1.546.14-2.322.104a10.417 10.417 0 0 1-2.292-.369 10.45 10.45 0 0 1-2.143-.874 15.386 15.386 0 0 1-1.003-.593l-.221-.138a6.852 6.852 0 0 0-.652-.38h-.014a2.2 2.2 0 0 0-.367-.163c-.618-.225-1.105-.605-1.724-1.086A18.846 18.846 0 0 0 24.02 5.67c-2.17-1.185-2.919-2.8-2.896-3.905.015-.67.302-1.19.79-1.434.629-.311 1.491-.126 2.431.525 1.987 1.368 3.551 1.721 5.063 2.064 1.341.304 2.608.591 4.123 1.543 1.722 1.082 3.18 1.313 4.723 1.558 1.265.187 2.581.397 4.209 1.08Z" fill="url('#paint2_linear_724_14183')"/><path d="M42.81 8.82a3.376 3.376 0 0 1-.836.874 7.145 7.145 0 0 1-2.143 1.05c-.757.24-1.534.41-2.323.505a14.35 14.35 0 0 1-2.38.121 10.584 10.584 0 0 1-2.36-.353 10.754 10.754 0 0 1-2.221-.887 18.013 18.013 0 0 1-1.028-.593l-.201-.124a7.32 7.32 0 0 0-.554-.322c-.07.025-.142.046-.215.061-1.134.254-2.572.082-3.962-.085-1.72-.207-3.498-.42-4.718.162-.734.35-1.554.7-2.422 1.088-2.839 1.242-6.06 2.65-6.222 3.894-.11.852.593 1.48 1.21 1.857.327.08.662.127 1 .139a6.559 6.559 0 0 0 2.077-.256c.345-.101.688-.234 1.01-.362a19.472 19.472 0 0 0 1.965-.936c.303-.159.646-.337.998-.484a6.533 6.533 0 0 1 1.072-.35l.047.175a8.705 8.705 0 0 0-1.939.95c-.623.395-1.269.757-1.933 1.084a7.469 7.469 0 0 1-2.143.7c-.36.06-.725.09-1.09.09-.456.139-1.849.686-1.595 2.126.178.985 1.007 1.258 1.683 1.315l.134-.02c.148-.023.3-.06.43-.093.292-.077.58-.168.863-.273.391-.142.788-.308 1.17-.467l.536-.228.297-.12c.466-.194.95-.394 1.429-.58.298-.111.59-.22.893-.309.304-.105.622-.165.945-.175v.175c-.3.032-.594.107-.872.222-.263.102-.536.219-.847.35-.516.235-1.036.485-1.538.73l-.341.174c-.484.235-.984.478-1.5.686-.293.122-.59.23-.894.324a5.36 5.36 0 0 1-.298.078c-.28.265-.579.74-.452 1.52.025.227.104.445.23.637.126.191.295.352.495.469.656.38 1.537.283 2.088.086.424-.152.97-.359 1.453-.543l.623-.236c.458-.225.902-.43 1.335-.614.343-.148.657-.274.96-.38a6.101 6.101 0 0 1 1.005-.284l.04.175a5.892 5.892 0 0 0-.939.362c-.277.127-.572.276-.902.456-.33.18-.641.35-.96.55a.947.947 0 0 0 .128.63c.101.17.245.314.417.418.173.104.369.164.57.176.57.07 1.287-.107 2.078-.51v-8.43L35.12 11.91l3.59.899 9.595 2.405v10.267c1.092.32 3.284.275 5.377-.111 1.565-.29 2.74-.99 3.49-2.084 1.403-2.037.858-4.784.853-4.81-.682-3.133-2.907-5.641-5.073-5.711-.67-.026-1.896-.213-2.534-.624-.816-.525-1.557-1.067-2.343-1.646-1.497-1.104-3.037-2.245-5.14-3.19.053.098.094.203.12.312a1.543 1.543 0 0 1-.245 1.202Z" fill="#313552"/><path d="m12.354 16.226.025.014h.014c.338.082.684.13 1.033.142a6.784 6.784 0 0 0 2.143-.263 11.09 11.09 0 0 0 1.024-.367 18.519 18.519 0 0 0 1.797-.85c-.563.353-1.145.677-1.743.969a7.25 7.25 0 0 1-2.105.7c-.354.059-.712.089-1.072.089h-.026c-.477.143-2.012.732-1.733 2.326.19 1.095 1.107 1.4 1.843 1.459h.022a.634.634 0 0 0 .16-.021c.154-.025.311-.063.445-.096.267-.069.547-.158.881-.279.395-.143.793-.31 1.179-.47.179-.077.357-.152.536-.226l.296-.122.633-.26-.765.368-.343.175c-.48.235-.979.476-1.49.682-.321.132-.61.235-.882.317-.1.03-.2.056-.302.08h-.079v.044c-.309.296-.632.819-.494 1.662.03.251.118.492.26.705.14.212.329.39.55.52.715.409 1.653.307 2.243.097.423-.152.971-.36 1.454-.544l.614-.232.023-.01c.447-.22.894-.426 1.328-.611l.148-.063-.143.077c-.33.175-.666.372-.998.572l-.03.019v.035a1.09 1.09 0 0 0 .133.785c.116.197.279.363.475.483.196.12.42.19.65.206.626.076 1.376-.111 2.23-.554l.048-.024v-8.407l12.794-3.262 13.005 3.264V25.61l.061.02c.693.179 1.41.259 2.126.237 1.14-.01 2.275-.121 3.394-.332 1.608-.3 2.828-1.025 3.607-2.159 1.441-2.099.882-4.913.875-4.943-.704-3.26-2.958-5.772-5.24-5.847-.65-.025-1.834-.205-2.441-.595a44.988 44.988 0 0 1-2.334-1.64c-1.575-1.16-3.204-2.36-5.468-3.34l-.357-.157c.063.024.125.049.19.077l.028.017c.048.047.093.097.136.149 3.331 1.471 5.277 3.395 7.756 4.97.627.403 1.846.583 2.487.608 2.253.072 4.466 2.615 5.157 5.772 0 0 1.231 5.948-4.412 6.997-2.003.37-4.334.457-5.484.09V15.288l-9.527-2.392-.063-.015-3.505-.875-7.502 1.924h-.02l-5.36 1.364v8.421c-1.834.952-2.891.525-3.233-.098a1.005 1.005 0 0 1-.127-.724c.328-.197.66-.387.996-.57.298-.163.6-.319.907-.46.306-.149.625-.272.952-.368a6.074 6.074 0 0 0-.99.28c-.323.114-.64.242-.955.378-.45.192-.894.396-1.331.612-.597.224-1.46.558-2.076.779-1.025.367-2.69.267-2.933-1.26-.132-.813.179-1.319.495-1.61a4.7 4.7 0 0 0 .316-.085c.303-.091.601-.198.893-.32.584-.234 1.142-.512 1.697-.782.556-.27 1.115-.542 1.68-.797.28-.128.566-.25.853-.36a3.19 3.19 0 0 1 .893-.23 3.23 3.23 0 0 0-.918.175c-.3.09-.591.198-.882.308-.582.224-1.154.463-1.728.7-.573.236-1.143.486-1.718.7a9.287 9.287 0 0 1-.872.276 5.025 5.025 0 0 1-.438.094c-.052.01-.104.017-.155.021-.714-.06-1.585-.35-1.763-1.387-.268-1.525 1.215-2.099 1.67-2.228.365 0 .729-.03 1.088-.09a7.34 7.34 0 0 0 2.13-.7c.659-.332 1.298-.7 1.916-1.103a8.67 8.67 0 0 1 1.965-.959c-.36.083-.71.196-1.05.338-.34.142-.666.311-.992.481-.636.349-1.292.663-1.965.941-.339.135-.675.264-1.016.364a6.277 6.277 0 0 1-1.047.215c-.352.045-.707.06-1.061.044a5.078 5.078 0 0 1-1.025-.142c-.695-.407-1.394-1.062-1.278-1.947.218-1.668 5.436-3.498 8.7-5.05 2.24-1.068 6.188.48 8.698-.082.082-.017.162-.041.24-.073.27.134.535.308.798.469.334.204.673.407 1.022.589.696.372 1.433.665 2.197.875.764.205 1.55.322 2.342.35.79.025 1.58-.015 2.363-.12a12.9 12.9 0 0 0 2.312-.491 7.575 7.575 0 0 0-.004 0c-.752.237-1.525.404-2.31.498-.592.078-1.188.118-1.786.121-.196 0-.39 0-.579-.014a10.562 10.562 0 0 1-2.33-.376A10.598 10.598 0 0 1 30.621 10c-.358-.19-.694-.398-1.01-.596l-.223-.14c-.198-.124-.402-.252-.62-.36l-.037.016c-.072.03-.146.052-.222.068-1.102.246-2.524.075-3.9-.09-1.745-.21-3.551-.426-4.823.175-.734.35-1.552.7-2.419 1.087-3.026 1.322-6.156 2.688-6.33 4.023-.088.757.364 1.462 1.316 2.043Z" fill="url('#paint3_linear_724_14183')"/><path d="M29.616 9.399c.316.198.657.406 1.009.596.69.378 1.42.679 2.178.896.76.212 1.542.338 2.33.376.19 0 .383.014.58.014a14.302 14.302 0 0 0 1.786-.12 12.726 12.726 0 0 0 2.306-.494 7.685 7.685 0 0 0 1.889-.875 6.62 6.62 0 0 0 .226-.16c.322-.234.598-.522.815-.85a1.485 1.485 0 0 0 .234-1.134 1.255 1.255 0 0 0-.29-.542l.033.014a1.781 1.781 0 0 0-.136-.149l-.029-.017a5.408 5.408 0 0 0-.189-.077l.13.146.026.011a1.3 1.3 0 0 1 .376.631 1.392 1.392 0 0 1-.228 1.073c-.212.32-.481.6-.795.825l-.141.098c-.029.021-.057.042-.088.061l-.044.028a7.353 7.353 0 0 1-1.814.84 12.76 12.76 0 0 1-2.295.499c-.778.104-1.563.144-2.347.118a10.34 10.34 0 0 1-2.323-.35 10.655 10.655 0 0 1-2.18-.874 16.496 16.496 0 0 1-1.016-.588l-.2-.122a7.709 7.709 0 0 0-.605-.35l-.038-.02c.218.11.422.237.62.361l.22.135Z" fill="url('#paint4_linear_724_14183')"/><path d="M29.616 9.399c.316.198.657.406 1.009.596.69.378 1.42.679 2.178.896.76.212 1.542.338 2.33.376.19 0 .383.014.58.014a14.302 14.302 0 0 0 1.786-.12 12.726 12.726 0 0 0 2.306-.494 7.685 7.685 0 0 0 1.889-.875 6.62 6.62 0 0 0 .226-.16c.322-.234.598-.522.815-.85a1.485 1.485 0 0 0 .234-1.134 1.255 1.255 0 0 0-.29-.542l.033.014a1.781 1.781 0 0 0-.136-.149l-.029-.017a5.408 5.408 0 0 0-.189-.077l.13.146.026.011a1.3 1.3 0 0 1 .376.631 1.392 1.392 0 0 1-.228 1.073c-.212.32-.481.6-.795.825l-.141.098c-.029.021-.057.042-.088.061l-.044.028a7.353 7.353 0 0 1-1.814.84 12.76 12.76 0 0 1-2.295.499c-.778.104-1.563.144-2.347.118a10.34 10.34 0 0 1-2.323-.35 10.655 10.655 0 0 1-2.18-.874 16.496 16.496 0 0 1-1.016-.588l-.2-.122a7.709 7.709 0 0 0-.605-.35l-.038-.02c.218.11.422.237.62.361l.22.135Z" fill="url('#paint5_linear_724_14183')"/><path d="M42.882 7.662c.071.37-.009.753-.224 1.065-.212.32-.48.6-.793.827l-.14.1.142-.098c.314-.226.583-.505.795-.825a1.408 1.408 0 0 0 .229-1.073 1.301 1.301 0 0 0-.376-.631l-.025-.01.124.138c.13.145.222.319.268.507Z" fill="#313552"/><path d="M42.882 7.662c.071.37-.009.753-.224 1.065-.212.32-.48.6-.793.827l-.14.1.142-.098c.314-.226.583-.505.795-.825a1.408 1.408 0 0 0 .229-1.073 1.301 1.301 0 0 0-.376-.631l-.025-.01.124.138c.13.145.222.319.268.507Z" fill="url('#paint6_linear_724_14183')"/><path d="M42.882 7.662c.071.37-.009.753-.224 1.065-.212.32-.48.6-.793.827l-.14.1.142-.098c.314-.226.583-.505.795-.825a1.408 1.408 0 0 0 .229-1.073 1.301 1.301 0 0 0-.376-.631l-.025-.01.124.138c.13.145.222.319.268.507Z" fill="url('#paint7_linear_724_14183')"/><path d="m41.638 9.715-.044.028.044-.028Z" fill="#313552"/><path d="m41.638 9.715-.044.028.044-.028Z" fill="url('#paint8_linear_724_14183')"/><path d="m41.638 9.715-.044.028.044-.028Z" fill="url('#paint9_linear_724_14183')"/><path d="M42.97 7.64a1.47 1.47 0 0 1-.235 1.134 3.299 3.299 0 0 1-.814.844 6.62 6.62 0 0 1-.227.16 7.575 7.575 0 0 1-1.885.875c-.753.238-1.527.406-2.311.502a14.43 14.43 0 0 1-2.364.119 10.38 10.38 0 0 1-2.342-.35c-.764-.21-1.5-.503-2.197-.874-.357-.175-.688-.385-1.022-.59-.266-.16-.536-.334-.799-.469a1.3 1.3 0 0 1-.239.074c-2.51.561-6.458-.987-8.698.082-3.264 1.562-8.482 3.385-8.7 5.053-.116.885.583 1.536 1.265 1.952.336.082.68.13 1.026.142.354.016.71.001 1.06-.044a6.267 6.267 0 0 0 1.053-.215c.341-.1.677-.229 1.016-.364a19.984 19.984 0 0 0 1.965-.94c.326-.176.652-.34.992-.482.34-.142.69-.255 1.05-.337a8.663 8.663 0 0 0-1.965.958c-.618.394-1.258.754-1.916 1.08a7.342 7.342 0 0 1-2.13.7c-.36.059-.723.088-1.088.088-.455.137-1.938.7-1.67 2.229.178 1.039 1.056 1.327 1.763 1.387a.587.587 0 0 0 .155-.021c.145-.023.292-.058.438-.095.293-.075.584-.174.872-.276.575-.208 1.141-.46 1.718-.7.577-.24 1.146-.475 1.728-.7.291-.11.582-.218.882-.307a3.23 3.23 0 0 1 .919-.175 3.19 3.19 0 0 0-.894.23c-.287.11-.573.232-.854.36-.564.255-1.12.524-1.679.797-.559.273-1.113.548-1.697.782-.292.122-.59.228-.893.32-.104.032-.21.06-.316.084-.318.292-.627.798-.495 1.611.243 1.527 1.908 1.627 2.933 1.26.616-.221 1.48-.555 2.076-.779.438-.216.882-.42 1.33-.612.315-.137.633-.264.957-.378a6.06 6.06 0 0 1 .99-.28 6.132 6.132 0 0 0-.953.367c-.307.142-.61.298-.907.46-.336.182-.668.372-.995.57-.051.25-.006.507.126.725.342.631 1.4 1.05 3.234.098v-8.408l5.359-1.365h.02l7.503-1.924 3.504.875.063.015 9.527 2.392v10.26c1.15.366 3.481.28 5.484-.09 5.643-1.05 4.412-6.997 4.412-6.997-.684-3.165-2.904-5.708-5.157-5.773-.641-.024-1.86-.204-2.487-.608-2.472-1.58-4.417-3.504-7.749-4.96L42.68 7.1c.14.155.24.34.29.542Zm5.105 2.852c.786.58 1.527 1.125 2.343 1.646.638.411 1.864.598 2.534.624 2.166.069 4.394 2.577 5.073 5.71 0 .026.55 2.772-.852 4.81-.75 1.093-1.926 1.793-3.49 2.083-2.094.387-4.288.432-5.378.112V15.215l-9.594-2.405-3.591-.9-12.97 3.305v8.434c-.79.404-1.507.581-2.077.511a1.247 1.247 0 0 1-.57-.176 1.215 1.215 0 0 1-.418-.419.947.947 0 0 1-.127-.63c.318-.192.642-.375.96-.549.318-.173.625-.328.902-.456a5.9 5.9 0 0 1 .938-.362l-.04-.175a6.1 6.1 0 0 0-.997.294c-.303.105-.618.23-.96.38a25.05 25.05 0 0 0-1.335.613l-.632.231c-.483.175-1.03.39-1.453.542-.552.198-1.429.294-2.088-.085-.2-.117-.37-.278-.495-.47a1.455 1.455 0 0 1-.23-.636c-.127-.78.178-1.256.452-1.52.1-.023.201-.05.298-.079.303-.093.601-.2.893-.323.516-.208 1.017-.451 1.5-.686l.342-.175a62.033 62.033 0 0 1 1.538-.73c.307-.139.584-.256.847-.349.278-.115.571-.19.872-.222v-.175a3.19 3.19 0 0 0-.945.175c-.3.09-.592.198-.894.31-.482.185-.966.384-1.429.579l-.296.12-.536.228c-.383.159-.78.325-1.17.467a9.2 9.2 0 0 1-.863.272c-.13.034-.282.07-.43.093l-.135.021c-.675-.058-1.513-.33-1.682-1.315-.261-1.441 1.132-1.989 1.588-2.127a6.87 6.87 0 0 0 1.09-.091 7.468 7.468 0 0 0 2.143-.7c.664-.327 1.31-.689 1.933-1.084.605-.4 1.26-.722 1.947-.96l-.046-.175a6.545 6.545 0 0 0-1.072.35c-.357.146-.695.325-.999.484-.636.348-1.292.66-1.965.936-.321.127-.664.26-1.01.362a6.56 6.56 0 0 1-2.077.255 4.961 4.961 0 0 1-1-.138c-.616-.378-1.32-1.006-1.21-1.858.176-1.24 3.396-2.648 6.24-3.89.869-.38 1.688-.736 2.423-1.088 1.22-.582 2.997-.369 4.718-.162 1.39.174 2.828.339 3.962.085.073-.015.144-.036.214-.061.179.094.373.21.554.322l.202.124c.323.198.67.406 1.027.593.702.376 1.445.674 2.215.887.77.209 1.563.33 2.362.36a14.34 14.34 0 0 0 2.385-.122 12.745 12.745 0 0 0 2.322-.506A7.146 7.146 0 0 0 41.98 9.7c.33-.24.613-.535.836-.874a1.558 1.558 0 0 0 .235-1.205 1.313 1.313 0 0 0-.12-.313c2.1.946 3.647 2.087 5.144 3.185Z" fill="#313552"/><path d="M42.97 7.64a1.47 1.47 0 0 1-.235 1.134 3.299 3.299 0 0 1-.814.844 6.62 6.62 0 0 1-.227.16 7.575 7.575 0 0 1-1.885.875c-.753.238-1.527.406-2.311.502a14.43 14.43 0 0 1-2.364.119 10.38 10.38 0 0 1-2.342-.35c-.764-.21-1.5-.503-2.197-.874-.357-.175-.688-.385-1.022-.59-.266-.16-.536-.334-.799-.469a1.3 1.3 0 0 1-.239.074c-2.51.561-6.458-.987-8.698.082-3.264 1.562-8.482 3.385-8.7 5.053-.116.885.583 1.536 1.265 1.952.336.082.68.13 1.026.142.354.016.71.001 1.06-.044a6.267 6.267 0 0 0 1.053-.215c.341-.1.677-.229 1.016-.364a19.984 19.984 0 0 0 1.965-.94c.326-.176.652-.34.992-.482.34-.142.69-.255 1.05-.337a8.663 8.663 0 0 0-1.965.958c-.618.394-1.258.754-1.916 1.08a7.342 7.342 0 0 1-2.13.7c-.36.059-.723.088-1.088.088-.455.137-1.938.7-1.67 2.229.178 1.039 1.056 1.327 1.763 1.387a.587.587 0 0 0 .155-.021c.145-.023.292-.058.438-.095.293-.075.584-.174.872-.276.575-.208 1.141-.46 1.718-.7.577-.24 1.146-.475 1.728-.7.291-.11.582-.218.882-.307a3.23 3.23 0 0 1 .919-.175 3.19 3.19 0 0 0-.894.23c-.287.11-.573.232-.854.36-.564.255-1.12.524-1.679.797-.559.273-1.113.548-1.697.782-.292.122-.59.228-.893.32-.104.032-.21.06-.316.084-.318.292-.627.798-.495 1.611.243 1.527 1.908 1.627 2.933 1.26.616-.221 1.48-.555 2.076-.779.438-.216.882-.42 1.33-.612.315-.137.633-.264.957-.378a6.06 6.06 0 0 1 .99-.28 6.132 6.132 0 0 0-.953.367c-.307.142-.61.298-.907.46-.336.182-.668.372-.995.57-.051.25-.006.507.126.725.342.631 1.4 1.05 3.234.098v-8.408l5.359-1.365h.02l7.503-1.924 3.504.875.063.015 9.527 2.392v10.26c1.15.366 3.481.28 5.484-.09 5.643-1.05 4.412-6.997 4.412-6.997-.684-3.165-2.904-5.708-5.157-5.773-.641-.024-1.86-.204-2.487-.608-2.472-1.58-4.417-3.504-7.749-4.96L42.68 7.1c.14.155.24.34.29.542Zm5.105 2.852c.786.58 1.527 1.125 2.343 1.646.638.411 1.864.598 2.534.624 2.166.069 4.394 2.577 5.073 5.71 0 .026.55 2.772-.852 4.81-.75 1.093-1.926 1.793-3.49 2.083-2.094.387-4.288.432-5.378.112V15.215l-9.594-2.405-3.591-.9-12.97 3.305v8.434c-.79.404-1.507.581-2.077.511a1.247 1.247 0 0 1-.57-.176 1.215 1.215 0 0 1-.418-.419.947.947 0 0 1-.127-.63c.318-.192.642-.375.96-.549.318-.173.625-.328.902-.456a5.9 5.9 0 0 1 .938-.362l-.04-.175a6.1 6.1 0 0 0-.997.294c-.303.105-.618.23-.96.38a25.05 25.05 0 0 0-1.335.613l-.632.231c-.483.175-1.03.39-1.453.542-.552.198-1.429.294-2.088-.085-.2-.117-.37-.278-.495-.47a1.455 1.455 0 0 1-.23-.636c-.127-.78.178-1.256.452-1.52.1-.023.201-.05.298-.079.303-.093.601-.2.893-.323.516-.208 1.017-.451 1.5-.686l.342-.175a62.033 62.033 0 0 1 1.538-.73c.307-.139.584-.256.847-.349.278-.115.571-.19.872-.222v-.175a3.19 3.19 0 0 0-.945.175c-.3.09-.592.198-.894.31-.482.185-.966.384-1.429.579l-.296.12-.536.228c-.383.159-.78.325-1.17.467a9.2 9.2 0 0 1-.863.272c-.13.034-.282.07-.43.093l-.135.021c-.675-.058-1.513-.33-1.682-1.315-.261-1.441 1.132-1.989 1.588-2.127a6.87 6.87 0 0 0 1.09-.091 7.468 7.468 0 0 0 2.143-.7c.664-.327 1.31-.689 1.933-1.084.605-.4 1.26-.722 1.947-.96l-.046-.175a6.545 6.545 0 0 0-1.072.35c-.357.146-.695.325-.999.484-.636.348-1.292.66-1.965.936-.321.127-.664.26-1.01.362a6.56 6.56 0 0 1-2.077.255 4.961 4.961 0 0 1-1-.138c-.616-.378-1.32-1.006-1.21-1.858.176-1.24 3.396-2.648 6.24-3.89.869-.38 1.688-.736 2.423-1.088 1.22-.582 2.997-.369 4.718-.162 1.39.174 2.828.339 3.962.085.073-.015.144-.036.214-.061.179.094.373.21.554.322l.202.124c.323.198.67.406 1.027.593.702.376 1.445.674 2.215.887.77.209 1.563.33 2.362.36a14.34 14.34 0 0 0 2.385-.122 12.745 12.745 0 0 0 2.322-.506A7.146 7.146 0 0 0 41.98 9.7c.33-.24.613-.535.836-.874a1.558 1.558 0 0 0 .235-1.205 1.313 1.313 0 0 0-.12-.313c2.1.946 3.647 2.087 5.144 3.185Z" fill="url('#paint10_linear_724_14183')"/><path d="m29.598 15.482-2.446-.764-3.274.857 2.528.8 3.192-.893Z" fill="url('#paint11_linear_724_14183')"/><path d="m31.12 13.675-2.755.723 2.415.754 2.837-.796-2.492-.68h-.005Z" fill="url('#paint12_linear_724_14183')"/><path d="m31.073 17.856 3.002-.98-3.305-1.028-3.207.894 3.505 1.114h.005Z" fill="url('#paint13_linear_724_14183')"/><path d="m38.433 18.237-3.258-1.016-3.012.981 3.234 1.022 3.036-.987Z" fill="url('#paint14_linear_724_14183')"/><path d="m34.871 14.697-2.924.82 3.223 1.003h.005l2.908-.945-3.206-.878h-.006Z" fill="url('#paint15_linear_724_14183')"/><path d="m32.426 13.34 2.445.666 2.673-.748-2.431-.625-2.687.707Z" fill="url('#paint16_linear_724_14183')"/><path d="m41.811 14.361-2.976-.768-2.704.752 3.11.852 2.57-.836Z" fill="url('#paint17_linear_724_14183')"/><path d="m42.735 16.84-3.48-.945-2.985.971 3.264 1.016 3.201-1.042Z" fill="url('#paint18_linear_724_14183')"/><path d="m46.586 15.59-3.567-.92h-.005l-2.596.847 3.474.945 2.694-.871Z" fill="url('#paint19_linear_724_14183')"/><path d="m25.963 17.078-3.098-.955v4.33l3.098.96v-4.335Z" fill="url('#paint20_linear_724_14183')"/><path d="m22.865 25.636 3.098.96v-4.54l-3.098-.96v4.54Z" fill="url('#paint21_linear_724_14183')"/><path d="m30.303 23.4-2.944-.907-.771-.241v4.539l3.715 1.15v-4.54Z" fill="url('#paint22_linear_724_14183')"/><path d="M30.303 22.759v-4.34l-3.715-1.145v4.336l1.98.612 1.735.537Z" fill="url('#paint23_linear_724_14183')"/><path d="M27.63 28.113c1.01.637 1.616 1.022 2.679 1.288v-.817l-3.716-1.151v.038c.118.067.229.133.341.203l.695.44Z" fill="url('#paint24_linear_724_14183')"/><path d="M32.242 29.715c.735.089 1.475.14 2.215.156l-3.524-1.093v.756c.373.066.805.129 1.309.181Z" fill="url('#paint25_linear_724_14183')"/><path d="m34.766 24.785-3.837-1.188v4.54l3.837 1.188v-4.54Z" fill="url('#paint26_linear_724_14183')"/><path d="m34.766 19.798-3.837-1.185v4.342l3.837 1.188v-4.345Z" fill="url('#paint27_linear_724_14183')"/><path d="M39.527 29.948v-1.17l-3.312 1.027c.325-.014.714-.023 1.195-.028.709.01 1.416.067 2.117.171Z" fill="url('#paint28_linear_724_14183')"/><path d="m43.862 27.433-3.71 1.15v1.47c1.37.247 2.753.665 3.71 1.249v-3.87Z" fill="url('#paint29_linear_724_14183')"/><path d="m47.589 26.278-1.354.424-.011.003h-.004l-1.204.37h-.005l-.005.006-.515.158v4.093l.73-.252.004-.005 2.36-.826.004-.005v-3.966Z" fill="url('#paint30_linear_724_14183')"/><path d="m36.785 23.802 2.738-.852v-4.337l-3.835 1.185v4.341l1.097-.337Z" fill="url('#paint31_linear_724_14183')"/><path d="m39.523 23.597-1.913.595h-.004l-1.918.593v4.535l3.835-1.188v-4.535Z" fill="url('#paint32_linear_724_14183')"/><path d="M43.86 22.252 40.15 23.4v4.54l3.71-1.15v-4.54Z" fill="url('#paint33_linear_724_14183')"/><path d="M43.86 21.61v-4.336l-3.71 1.145v4.34l3.71-1.15Z" fill="url('#paint34_linear_724_14183')"/><path d="m47.589 16.123-3.098.955v4.336l3.098-.96v-4.331Z" fill="url('#paint35_linear_724_14183')"/><path d="m46.75 25.897.839-.26v-4.541l-3.098.96v4.54l2.25-.699h.008Z" fill="url('#paint36_linear_724_14183')"/><path d="M18.485 27.228c-.22.3-.37.644-.438 1.008a3.788 3.788 0 0 0-.048 1.116 6.63 6.63 0 0 0 .655 2.183c.319.693.79 1.31 1.38 1.805.594.5 1.26.913 1.977 1.224.721.313 1.472.555 2.242.724.51.114 1.027.2 1.547.256.754-.077 1.515-.144 2.25-.207l.776-.068c.963-.06 1.92-.2 2.858-.416h.022c1.06 0 2.297.06 3.78.2.433.096.873.16 1.316.19.26.014.52.014.78 0l.764-.044c1.885 0 3.582-.212 4.793-.593l.01-.01.045-.01.066-.015c.397-.12.956-.32 1.25-.661a.697.697 0 0 0 .133-.227c.018-.074.028-.15.03-.226v-.058c.064-.568-.377-1.144-1.241-1.621a3.224 3.224 0 0 0-.28-.149 11.315 11.315 0 0 0-2.823-.962 40.564 40.564 0 0 0-1.058-.196 12.608 12.608 0 0 0-1.854-.117c-.511 0-1.358.04-1.976.068-.323.014-.575.025-.666.026-.865 0-1.73-.052-2.589-.157-.432-.047-3.93-.588-5.028-1.279l-.19-.126c-.598-.404-2.417-1.632-3.05-1.81a17.66 17.66 0 0 0-4.108-.686 2.14 2.14 0 0 0-.477.163 2.234 2.234 0 0 0-.848.675Z" fill="#313552"/><path d="M19.27 26.41c-.363.16-.677.41-.912.725a2.63 2.63 0 0 0-.468 1.064 3.87 3.87 0 0 0-.057 1.165c.088.778.312 1.536.66 2.24a5.36 5.36 0 0 0 1.43 1.851c.61.504 1.294.916 2.027 1.225.731.31 1.492.55 2.27.715.358.077.74.142 1.112.192l.715.098c.673-.068 1.352-.127 2.011-.183l.777-.07c.967-.061 1.927-.2 2.87-.417 1.25.003 2.499.068 3.742.196.438.1.884.165 1.334.195.265.013.531.013.797 0l.77-.044c1.899 0 3.622-.217 4.853-.609l.032-.01.067-.018c.42-.126 1.01-.34 1.327-.714a.876.876 0 0 0 .166-.29 1.226 1.226 0 0 0 .04-.33c.062-.637-.41-1.269-1.332-1.776a4.047 4.047 0 0 0-.29-.156 11.463 11.463 0 0 0-2.859-.976 44.183 44.183 0 0 0-1.072-.197 12.91 12.91 0 0 0-1.877-.12c-.513 0-1.363.04-1.983.069-.32.014-.568.024-.66.026-.858.003-1.715-.05-2.566-.155-.427-.048-3.88-.58-4.952-1.253l-.179-.124c-.604-.408-2.44-1.646-3.101-1.833a17.787 17.787 0 0 0-4.127-.7l-.428.156a1.264 1.264 0 0 1-.136.058ZM39.528 30.4c-.068-.014-.136-.028-.206-.038l.206.038Zm-15.59-3.423c.746.212 3.054 1.814 3.262 1.947 1.072.675 4.516 1.214 4.99 1.266.856.106 1.717.158 2.579.156.262 0 1.86-.09 2.642-.095.624-.005 1.247.034 1.865.12.014 0 .863.152 1.072.195.987.197 1.943.523 2.842.97.102.047.194.099.286.152.957.524 1.35 1.136 1.286 1.707v.047a1.145 1.145 0 0 1-.036.257.779.779 0 0 1-.146.252c-.277.329-.786.537-1.287.69l-.071.017h-.014a.016.016 0 0 0-.015 0c-1.059.337-2.68.603-4.823.603h-.009l-.764.044a7.394 7.394 0 0 1-.788 0 8.55 8.55 0 0 1-1.32-.19 38.116 38.116 0 0 0-3.771-.2c-1.01.266-2.103.35-3.18.446-.904.078-1.812.154-2.724.248a14.338 14.338 0 0 1-1.567-.259 12.215 12.215 0 0 1-2.274-.72 8.103 8.103 0 0 1-2.001-1.225 5.31 5.31 0 0 1-1.393-1.835 6.753 6.753 0 0 1-.663-2.21 3.88 3.88 0 0 1 .048-1.143c.072-.378.227-.736.454-1.05.229-.306.532-.553.882-.716.162-.078.333-.137.51-.175 1.4.069 2.786.304 4.128.701Z" fill="url('#paint37_linear_724_14183')"/><path d="m39.526 30.405-.205-.03c.07.01.138.024.205.038v-.008Z" fill="url('#paint38_linear_724_14183')"/><path d="m39.526 30.405-.205-.03c.07.01.138.024.205.038v-.008Z" fill="url('#paint39_linear_724_14183')"/><path d="M18.413 27.177a2.624 2.624 0 0 0-.454 1.05 3.88 3.88 0 0 0-.048 1.142c.094.766.32 1.51.667 2.202.323.704.8 1.33 1.396 1.835a8.105 8.105 0 0 0 2.001 1.225c.726.315 1.483.56 2.258.729.517.115 1.04.202 1.567.259.913-.095 1.82-.175 2.724-.248 1.072-.1 2.17-.175 3.18-.447 1.26.005 2.518.071 3.771.2.435.103.878.172 1.324.206.262.014.525.014.788 0l.764-.044h.01c2.143 0 3.767-.265 4.822-.603a.016.016 0 0 1 .015 0h.014l.071-.017c.5-.153 1.01-.36 1.287-.69a.779.779 0 0 0 .146-.252 1.145 1.145 0 0 0 .036-.276v-.028c.064-.57-.329-1.179-1.286-1.707-.092-.053-.179-.105-.286-.152a11.429 11.429 0 0 0-2.842-.97 38.891 38.891 0 0 0-1.072-.195 12.824 12.824 0 0 0-1.865-.12c-.783 0-2.38.092-2.642.095-.862.003-1.723-.05-2.578-.155-.475-.053-3.918-.591-4.991-1.267-.207-.133-2.516-1.735-3.262-1.947a17.664 17.664 0 0 0-4.132-.689 2.314 2.314 0 0 0-.51.175 2.334 2.334 0 0 0-.873.69Zm.922-.638a2.14 2.14 0 0 1 .477-.163 17.66 17.66 0 0 1 4.109.686c.632.175 2.45 1.4 3.05 1.81l.188.126c1.1.691 4.597 1.225 5.03 1.279.858.105 1.722.158 2.588.157.09 0 .343-.012.666-.026a62.572 62.572 0 0 1 1.976-.068c.62-.007 1.24.032 1.854.117.04 0 .852.15 1.057.196.981.195 1.93.519 2.823.962.096.045.19.095.28.149.865.477 1.306 1.05 1.242 1.621v.058a1.047 1.047 0 0 1-.03.226.693.693 0 0 1-.133.227c-.287.341-.846.54-1.25.661l-.066.016-.045.009-.01.01c-1.212.381-2.909.593-4.793.593l-.765.044a7.33 7.33 0 0 1-.779 0 8.68 8.68 0 0 1-1.316-.19c-1.483-.14-2.721-.206-3.78-.2h-.022c-.939.217-1.895.356-2.858.416l-.782.075c-.736.063-1.497.13-2.251.207a14.18 14.18 0 0 1-1.547-.256c-.77-.169-1.521-.411-2.242-.724a8.01 8.01 0 0 1-1.978-1.224 5.185 5.185 0 0 1-1.379-1.805 6.635 6.635 0 0 1-.656-2.183 3.788 3.788 0 0 1 .049-1.116 2.5 2.5 0 0 1 .437-1.008c.22-.295.512-.532.849-.69l.007.008Z" fill="#313552"/><path d="M18.413 27.177a2.624 2.624 0 0 0-.454 1.05 3.88 3.88 0 0 0-.048 1.142c.094.766.32 1.51.667 2.202.323.704.8 1.33 1.396 1.835a8.105 8.105 0 0 0 2.001 1.225c.726.315 1.483.56 2.258.729.517.115 1.04.202 1.567.259.913-.095 1.82-.175 2.724-.248 1.072-.1 2.17-.175 3.18-.447 1.26.005 2.518.071 3.771.2.435.103.878.172 1.324.206.262.014.525.014.788 0l.764-.044h.01c2.143 0 3.767-.265 4.822-.603a.016.016 0 0 1 .015 0h.014l.071-.017c.5-.153 1.01-.36 1.287-.69a.779.779 0 0 0 .146-.252 1.145 1.145 0 0 0 .036-.276v-.028c.064-.57-.329-1.179-1.286-1.707-.092-.053-.179-.105-.286-.152a11.429 11.429 0 0 0-2.842-.97 38.891 38.891 0 0 0-1.072-.195 12.824 12.824 0 0 0-1.865-.12c-.783 0-2.38.092-2.642.095-.862.003-1.723-.05-2.578-.155-.475-.053-3.918-.591-4.991-1.267-.207-.133-2.516-1.735-3.262-1.947a17.664 17.664 0 0 0-4.132-.689 2.314 2.314 0 0 0-.51.175 2.334 2.334 0 0 0-.873.69Zm.922-.638a2.14 2.14 0 0 1 .477-.163 17.66 17.66 0 0 1 4.109.686c.632.175 2.45 1.4 3.05 1.81l.188.126c1.1.691 4.597 1.225 5.03 1.279.858.105 1.722.158 2.588.157.09 0 .343-.012.666-.026a62.572 62.572 0 0 1 1.976-.068c.62-.007 1.24.032 1.854.117.04 0 .852.15 1.057.196.981.195 1.93.519 2.823.962.096.045.19.095.28.149.865.477 1.306 1.05 1.242 1.621v.058a1.047 1.047 0 0 1-.03.226.693.693 0 0 1-.133.227c-.287.341-.846.54-1.25.661l-.066.016-.045.009-.01.01c-1.212.381-2.909.593-4.793.593l-.765.044a7.33 7.33 0 0 1-.779 0 8.68 8.68 0 0 1-1.316-.19c-1.483-.14-2.721-.206-3.78-.2h-.022c-.939.217-1.895.356-2.858.416l-.782.075c-.736.063-1.497.13-2.251.207a14.18 14.18 0 0 1-1.547-.256c-.77-.169-1.521-.411-2.242-.724a8.01 8.01 0 0 1-1.978-1.224 5.185 5.185 0 0 1-1.379-1.805 6.635 6.635 0 0 1-.656-2.183 3.788 3.788 0 0 1 .049-1.116 2.5 2.5 0 0 1 .437-1.008c.22-.295.512-.532.849-.69l.007.008Z" fill="url('#paint40_linear_724_14183')"/><path d="M54.013 28.615c-1.01-.451-1.635-.061-1.662-.045l-.055.035-.05-.04c-1.71-1.368-3.351.174-3.977.902l-.834 1.371c-.334.494-.568.901-.668 1.076l-.059.1c-.316.465-1.048.782-1.322.887.11.454.055 1.1-.266 1.478-.47.549-1.072.76-1.608.948-.548.173-1.109.307-1.677.402-1.147.19-2.292.289-3.36.37l-.836.052a9.503 9.503 0 0 1-.894 0 10.563 10.563 0 0 1-1.72-.272l-.357-.08c-.402-.099-.81-.176-1.22-.23a4.025 4.025 0 0 0-1.49.097 15.17 15.17 0 0 1-3.41.364 20.52 20.52 0 0 1-3.36-.252l-.613-.1.11-.012a12.475 12.475 0 0 1-2.8-.824 8.405 8.405 0 0 1-2.07-1.25 5.536 5.536 0 0 1-1.478-1.912 6.887 6.887 0 0 1-.681-2.297 3.99 3.99 0 0 1 .059-1.224c.08-.408.25-.794.498-1.13.206-.274.467-.503.767-.674-4.702.058-7.194 2.302-7.471 2.564-1.863 1.785-2.631 3.502-2.4 5.412.328 2.785 3.216 4.75 5.75 5.183 6.636 1.136 12.147 3.39 14.348 4.548 2.858 1.489 4.371.854 6.136.119.856-.35 2.047-.575 3.308-.808 1.505-.276 3.06-.562 4.175-1.107a8.79 8.79 0 0 1 2.112-.7c.893-.196 1.47-.325 1.983-1.186.268-.455.754-.82 1.368-1.282 1.44-1.083 3.614-2.716 5.29-7.284.08-.248.083-.513.01-.763a1.332 1.332 0 0 0-.418-.645 1.524 1.524 0 0 0-.514-.248l-.104-.033a1.277 1.277 0 0 0-.602-.021 3.93 3.93 0 0 0-1.297.587 5.015 5.015 0 0 0-1.086.966c-.315.399-.6.82-.85 1.26-.15.247-.32.48-.511.7a1.91 1.91 0 0 1-.38.326l-.227.123-.18.084a8.15 8.15 0 0 0-2.388 1.782l-.058.07a4.61 4.61 0 0 0-.17.21 1.253 1.253 0 0 1-.418.374c-.061.039-.132.08-.2.12l-.229.085a2.201 2.201 0 0 1-.323.1l-.102.028c-.54.122-1.086.21-1.636.262-.274.035-.55.063-.826.09-.76.053-1.516.17-2.256.35a1.73 1.73 0 0 0-.31.118c-.08.042-.281.128-.422.175h-.017a5.13 5.13 0 0 1-.45.085l-.127.01a7.376 7.376 0 0 1-1.965-.176 16.486 16.486 0 0 1-3.092-.969l-.757-.316.809.15c.933.175 2.037.366 3.146.497.508.063 1.02.09 1.53.08.08 0 .156-.012.233-.019l.13-.014c.061-.01.126-.026.18-.042l.124-.03c.045-.022.08-.036.12-.054.04-.017.098-.042.178-.084.138-.071.282-.13.431-.175a14.013 14.013 0 0 1 2.424-.413c.272-.03.536-.059.811-.094a12.903 12.903 0 0 0 1.519-.259c.213-.047.417-.126.605-.234l.018-.009c.027-.01.05-.03.068-.053l.04-.035a.312.312 0 0 0 .053-.06c.087-.121.178-.237.266-.335a8.3 8.3 0 0 1 2.68-1.997l.196-.086.104-.05c.078-.053.15-.115.212-.184.157-.179.296-.37.418-.572l.099-.156c.246-.417.526-.814.837-1.188a5.4 5.4 0 0 1 1.283-1.116 4.532 4.532 0 0 1 1.622-.663 2.02 2.02 0 0 1 .968.07c.32.12.599.327.802.597.178.252.314.53.4.825.193-.289.35-.6.467-.925.216-.62.055-1.086-.434-1.305Z" fill="#313552"/><path d="M54.086 28.456c-.938-.42-1.585-.163-1.776-.065-1.28-.986-2.8-.636-4.185.975l-.536.874-.302.497c-.334.493-.572.906-.674 1.083-.026.047-.042.077-.05.087-.328.486-1.21.814-1.31.85l-.078.028.024.079c.123.418.078 1.05-.213 1.4-.438.512-1.018.715-1.527.893-.54.17-1.093.303-1.653.395-1.138.19-2.277.289-3.34.368l-.835.052c-.287.014-.58.014-.87 0-.57-.042-1.135-.13-1.69-.266l-.357-.08c-.408-.101-.822-.18-1.24-.234a4.23 4.23 0 0 0-1.555.1c-1.107.248-2.238.37-3.373.363a20.473 20.473 0 0 1-2.569-.143l.166-.013-.087-.012-.247.023h-.02a13.962 13.962 0 0 1-1.577-.26 12.36 12.36 0 0 1-2.274-.735 8.116 8.116 0 0 1-2.022-1.246 5.325 5.325 0 0 1-1.43-1.864 6.753 6.753 0 0 1-.67-2.238 3.959 3.959 0 0 1 .05-1.168 2.69 2.69 0 0 1 .469-1.076 2.414 2.414 0 0 1 1.452-.918h.061-.479c-5.029-.075-7.703 2.337-7.99 2.611-1.903 1.802-2.685 3.567-2.448 5.535.336 2.87 3.289 4.897 5.895 5.336 6.61 1.13 12.098 3.376 14.291 4.524 1.303.68 2.334.93 3.237.93 1.126 0 2.051-.386 3.053-.804.838-.35 2.02-.567 3.271-.798 1.517-.278 3.085-.565 4.223-1.123a8.504 8.504 0 0 1 2.07-.678c.894-.2 1.546-.35 2.1-1.27.25-.426.714-.78 1.322-1.225 1.456-1.093 3.655-2.748 5.348-7.362.092-.282.097-.585.014-.87a1.511 1.511 0 0 0-.477-.734 1.71 1.71 0 0 0-.571-.278l-.107-.035a1.44 1.44 0 0 0-.692-.023c-.487.12-.947.327-1.357.61a5.126 5.126 0 0 0-1.126 1.003c-.321.404-.61.831-.866 1.278a4.82 4.82 0 0 1-.493.68c-.1.111-.214.21-.34.293l-.214.117-.179.08a8.357 8.357 0 0 0-2.445 1.827l-.061.072-.179.213a1.092 1.092 0 0 1-.357.327l-.198.117-.218.082c-.094.036-.19.066-.288.09l-.103.026c-.53.122-1.067.208-1.608.259-.273.033-.548.06-.822.089-.773.056-1.539.177-2.29.362a1.806 1.806 0 0 0-.343.131c-.066.033-.259.117-.395.175-.136.058-.293.065-.429.082h-.121a7.203 7.203 0 0 1-1.922-.175 15.317 15.317 0 0 1-2.226-.633c.715.124 1.493.247 2.274.34.517.064 1.037.091 1.558.082.084 0 .166-.013.246-.021l.134-.014a2.61 2.61 0 0 0 .21-.046l.13-.03.023-.008a.989.989 0 0 1 .12-.054c.046-.021.101-.046.19-.09a2.23 2.23 0 0 1 .403-.164 13.968 13.968 0 0 1 2.39-.408c.273-.03.536-.06.815-.094.519-.057 1.034-.145 1.543-.262.23-.053.452-.14.656-.258a.332.332 0 0 0 .123-.092l.02-.018a.443.443 0 0 0 .083-.094c.084-.116.18-.228.256-.322a8.12 8.12 0 0 1 2.612-1.95l.203-.09.13-.075c.092-.06.176-.133.25-.213.163-.187.309-.387.437-.598l.098-.156a9.15 9.15 0 0 1 .822-1.165 5.268 5.268 0 0 1 1.241-1.081c.47-.313 1-.53 1.558-.639.294-.05.596-.03.879.062.285.108.533.295.714.537.198.286.34.605.42.94l.014.07h.068c.134 0 .561-.823.672-1.16.236-.707.043-1.262-.534-1.519Zm.454 1.496c-.142.392-.34.762-.588 1.1a2.865 2.865 0 0 0-.436-.976 1.693 1.693 0 0 0-.757-.565 1.934 1.934 0 0 0-.928-.067 4.414 4.414 0 0 0-1.588.651c-.477.299-.903.67-1.263 1.099-.343.422-.653.87-.927 1.338a4.129 4.129 0 0 1-.427.586c-.07.075-.148.142-.234.199l-.125.072-.195.084a8.213 8.213 0 0 0-2.642 1.974 5.488 5.488 0 0 0-.26.328.55.55 0 0 1-.099.105.262.262 0 0 1-.102.075 2.247 2.247 0 0 1-.635.248c-.504.117-1.015.204-1.53.26-1.053.139-2.116.186-3.215.505a2.515 2.515 0 0 0-.418.174c-.16.08-.21.091-.31.144-.112.023-.219.056-.337.075-.118.02-.24.03-.368.033a10.527 10.527 0 0 1-1.545-.08 50.311 50.311 0 0 1-3.151-.499c.99.421 2.02.744 3.074.964a8.336 8.336 0 0 0 1.636.19c.142 0 .286-.013.433-.022.146-.009.296-.053.446-.086.15-.033.34-.138.413-.175a1.84 1.84 0 0 1 .325-.124c.952-.27 2.04-.322 3.098-.451a12.511 12.511 0 0 0 1.622-.26c.142-.033.281-.075.418-.125l.214-.08.213-.125c.148-.09.277-.21.379-.35.073-.096.155-.19.234-.285a8.25 8.25 0 0 1 2.417-1.803l.17-.08.219-.12c.133-.088.253-.193.357-.312.187-.216.354-.446.5-.69.254-.443.541-.868.86-1.27.317-.379.69-.71 1.105-.984.4-.28.85-.482 1.326-.598.216-.045.44-.037.652.022.232.058.451.158.645.296.215.182.37.421.448.69.077.267.072.55-.014.816-2.381 6.505-5.775 7.082-6.66 8.57-.884 1.49-2.041.893-4.132 1.916-2.061 1.01-5.621 1.139-7.488 1.924-1.867.786-3.378 1.361-6.213-.122-2.264-1.183-7.793-3.416-14.322-4.532-2.68-.457-5.496-2.49-5.822-5.26-.26-2.21.811-3.94 2.435-5.49.852-.812 3.573-2.649 7.928-2.588a2.39 2.39 0 0 0-1.09.812c-.24.327-.405.701-.484 1.097a3.985 3.985 0 0 0-.057 1.19c.09.79.315 1.56.668 2.275a5.436 5.436 0 0 0 1.456 1.88c.617.51 1.308.927 2.05 1.239a12.34 12.34 0 0 0 2.288.72c.37.08.743.144 1.118.194l-.127.014c1.107.178 2.228.263 3.35.252a15.036 15.036 0 0 0 3.385-.362 4.092 4.092 0 0 1 1.524-.1c.536.078 1.068.183 1.593.313.56.137 1.13.227 1.704.268.291.014.588.014.88 0l.835-.052c1.111-.083 2.233-.175 3.35-.368.564-.093 1.12-.227 1.665-.398.544-.191 1.121-.4 1.568-.922.316-.371.357-1.05.229-1.475.223-.08 1.029-.404 1.354-.883.03-.044.296-.539.723-1.17l.844-1.384c1.096-1.273 2.634-2.087 4.108-.913 0 0 .675-.44 1.747.038.486.22.715.707.483 1.416Z" fill="url('#paint41_linear_724_14183')"/><path d="m47.589 30.244-.004.006.004-.002v-.004Z" fill="url('#paint42_linear_724_14183')"/><path d="m47.589 30.244-.004.006.004-.002v-.004Z" fill="url('#paint43_linear_724_14183')"/><path d="M19.796 26.2h-.01a2.413 2.413 0 0 0-1.452.918 2.69 2.69 0 0 0-.47 1.076 3.962 3.962 0 0 0-.05 1.168c.092.778.319 1.534.67 2.237.33.718.818 1.355 1.43 1.865.607.51 1.289.93 2.022 1.245.731.318 1.493.564 2.274.735.52.117 1.047.204 1.577.26h.02l.247-.022-.715-.098a15.62 15.62 0 0 1-1.111-.193 12.355 12.355 0 0 1-2.27-.715 8.167 8.167 0 0 1-2.028-1.224A5.36 5.36 0 0 1 18.5 31.6a6.765 6.765 0 0 1-.66-2.24 3.87 3.87 0 0 1 .057-1.166 2.63 2.63 0 0 1 .468-1.063c.235-.315.55-.566.913-.726.044-.02.09-.038.136-.054l.428-.156h-.039l-.007.004Z" fill="url('#paint44_linear_724_14183')"/><path d="M19.796 26.2h-.01a2.413 2.413 0 0 0-1.452.918 2.69 2.69 0 0 0-.47 1.076 3.962 3.962 0 0 0-.05 1.168c.092.778.319 1.534.67 2.237.33.718.818 1.355 1.43 1.865.607.51 1.289.93 2.022 1.245.731.318 1.493.564 2.274.735.52.117 1.047.204 1.577.26h.02l.247-.022-.715-.098a15.62 15.62 0 0 1-1.111-.193 12.355 12.355 0 0 1-2.27-.715 8.167 8.167 0 0 1-2.028-1.224A5.36 5.36 0 0 1 18.5 31.6a6.765 6.765 0 0 1-.66-2.24 3.87 3.87 0 0 1 .057-1.166 2.63 2.63 0 0 1 .468-1.063c.235-.315.55-.566.913-.726.044-.02.09-.038.136-.054l.428-.156h-.039l-.007.004Z" fill="url('#paint45_linear_724_14183')"/><path d="M54.05 28.537c-1.072-.48-1.747-.039-1.747-.039-1.467-1.174-3.005-.36-4.109.913l-.843 1.384c-.427.631-.693 1.126-.724 1.17-.325.48-1.13.803-1.354.883.127.429.088 1.104-.228 1.475-.447.524-1.024.73-1.569.922-.544.172-1.1.305-1.665.398-1.116.186-2.238.285-3.35.368l-.835.052a9.201 9.201 0 0 1-.88 0 10.26 10.26 0 0 1-1.703-.268 16.316 16.316 0 0 0-1.594-.313 4.09 4.09 0 0 0-1.524.1c-1.11.248-2.246.37-3.385.362a19.914 19.914 0 0 1-3.35-.252l.128-.014a15.778 15.778 0 0 1-1.119-.194 12.355 12.355 0 0 1-2.288-.72 8.23 8.23 0 0 1-2.05-1.239 5.436 5.436 0 0 1-1.455-1.88 6.865 6.865 0 0 1-.668-2.274 3.986 3.986 0 0 1 .057-1.191c.079-.396.244-.77.484-1.097a2.39 2.39 0 0 1 1.09-.812c-4.359-.06-7.076 1.776-7.928 2.587-1.617 1.552-2.689 3.282-2.428 5.484.325 2.77 3.15 4.803 5.822 5.26 6.53 1.116 12.058 3.35 14.322 4.532 2.834 1.483 4.33.908 6.213.122 1.883-.785 5.427-.908 7.488-1.924 2.09-1.023 3.248-.432 4.132-1.915.884-1.483 4.275-2.066 6.663-8.58.087-.265.091-.549.014-.817a1.417 1.417 0 0 0-.448-.689 1.91 1.91 0 0 0-.645-.296 1.385 1.385 0 0 0-.652-.022 3.945 3.945 0 0 0-1.325.598 5.074 5.074 0 0 0-1.106.985c-.318.401-.606.826-.86 1.27a4.894 4.894 0 0 1-.5.689 1.81 1.81 0 0 1-.357.313l-.22.119-.17.08a8.25 8.25 0 0 0-2.416 1.804c-.079.094-.16.189-.234.285-.102.14-.23.259-.379.35l-.212.124-.215.08c-.136.05-.276.092-.418.124a12.51 12.51 0 0 1-1.622.261c-1.057.13-2.143.175-3.097.451a1.845 1.845 0 0 0-.326.125 4.332 4.332 0 0 1-.412.175c-.141.05-.3.066-.447.085a3.31 3.31 0 0 1-.432.023 8.337 8.337 0 0 1-1.636-.19 16.379 16.379 0 0 1-3.075-.965c1.054.195 2.108.375 3.151.5.513.064 1.03.09 1.546.08.126 0 .246-.023.368-.034.121-.01.225-.052.335-.075.102-.052.15-.063.311-.143.134-.071.274-.13.418-.175 1.102-.319 2.165-.366 3.216-.504a13.193 13.193 0 0 0 1.529-.26c.224-.05.438-.135.636-.249a.262.262 0 0 0 .102-.075.552.552 0 0 0 .098-.105c.082-.114.179-.224.26-.327a8.211 8.211 0 0 1 2.643-1.975l.195-.084.125-.072c.085-.057.164-.124.234-.2.157-.177.299-.368.423-.57.274-.465.584-.91.927-1.33.36-.43.786-.8 1.263-1.099.48-.318 1.02-.54 1.588-.65.31-.054.629-.031.927.066.303.113.566.31.758.565.206.296.353.627.436.976.248-.338.446-.708.587-1.1.233-.716.004-1.202-.49-1.422Zm.404 1.387a4.297 4.297 0 0 1-.467.925 2.81 2.81 0 0 0-.4-.826 1.783 1.783 0 0 0-.802-.596 2.02 2.02 0 0 0-.968-.07c-.58.114-1.131.34-1.622.663-.485.303-.918.68-1.283 1.116-.31.373-.591.77-.838 1.187l-.098.156a3.986 3.986 0 0 1-.418.572c-.065.069-.139.13-.22.18l-.116.067-.196.085a8.303 8.303 0 0 0-2.68 1.998 6.086 6.086 0 0 0-.266.334.312.312 0 0 1-.053.061l-.04.035a.155.155 0 0 1-.068.053l-.018.009a2.159 2.159 0 0 1-.605.234c-.5.116-1.008.203-1.519.259-.27.035-.535.065-.81.094-.82.067-1.63.205-2.425.413a2.515 2.515 0 0 0-.43.175c-.084.042-.136.065-.179.084-.043.02-.075.031-.12.054l-.125.03a4.132 4.132 0 0 1-.178.042l-.13.014c-.078 0-.154.016-.233.02-.512.009-1.023-.018-1.53-.081a50.107 50.107 0 0 1-3.147-.497l-.809-.15.758.316a16.48 16.48 0 0 0 3.092.969 7.378 7.378 0 0 0 1.965.175l.127-.009c.148-.019.301-.052.45-.086h.016c.141-.054.343-.14.421-.174.1-.05.204-.089.311-.118.74-.18 1.495-.297 2.256-.35.276-.027.552-.055.826-.09.55-.053 1.097-.14 1.636-.263l.102-.028c.11-.025.218-.058.323-.1l.229-.085c.068-.039.14-.08.2-.12.166-.091.31-.22.418-.373.054-.072.11-.14.17-.21l.059-.07a8.152 8.152 0 0 1 2.388-1.783l.179-.084.227-.122c.14-.092.269-.202.38-.327.19-.219.362-.453.511-.7.251-.44.535-.86.85-1.26a5.017 5.017 0 0 1 1.087-.965 3.929 3.929 0 0 1 1.296-.588c.2-.04.406-.034.602.021l.104.034c.186.05.36.134.514.248.201.17.346.394.419.645.072.25.068.515-.011.763-1.676 4.567-3.85 6.201-5.29 7.284-.614.462-1.1.827-1.368 1.282-.513.86-1.097.99-1.983 1.186a8.794 8.794 0 0 0-2.111.7c-1.115.545-2.671.83-4.175 1.107-1.262.232-2.453.451-3.309.808-1.765.734-3.287 1.37-6.136-.12-2.206-1.152-7.712-3.407-14.348-4.547-2.539-.45-5.418-2.414-5.736-5.199-.224-1.91.536-3.627 2.408-5.405.277-.262 2.769-2.506 7.47-2.564-.3.17-.56.4-.766.674-.25.334-.423.717-.507 1.123a3.988 3.988 0 0 0-.06 1.224c.09.798.318 1.575.676 2.297a5.536 5.536 0 0 0 1.48 1.912 8.404 8.404 0 0 0 2.07 1.25 12.471 12.471 0 0 0 2.799.824l-.11.012.612.1c1.113.176 2.238.26 3.365.252 1.147.007 2.29-.116 3.409-.366a4.025 4.025 0 0 1 1.49-.098c.41.055.818.132 1.22.231l.357.08c.565.138 1.14.229 1.72.272.295.014.593.014.893 0l.837-.053c1.071-.08 2.213-.174 3.36-.369.568-.095 1.129-.23 1.677-.402.536-.187 1.138-.399 1.608-.948.322-.378.375-1.023.266-1.478.273-.105 1.006-.422 1.322-.887l.059-.1c.1-.174.334-.582.668-1.075l.834-1.372c.626-.727 2.267-2.274 3.977-.902l.05.04.055-.035c.027-.016.652-.406 1.662.045.49.22.652.686.443 1.31Z" fill="#313552"/><path d="M54.05 28.537c-1.072-.48-1.747-.039-1.747-.039-1.467-1.174-3.005-.36-4.109.913l-.843 1.384c-.427.631-.693 1.126-.724 1.17-.325.48-1.13.803-1.354.883.127.429.088 1.104-.228 1.475-.447.524-1.024.73-1.569.922-.544.172-1.1.305-1.665.398-1.116.186-2.238.285-3.35.368l-.835.052a9.201 9.201 0 0 1-.88 0 10.26 10.26 0 0 1-1.703-.268 16.316 16.316 0 0 0-1.594-.313 4.09 4.09 0 0 0-1.524.1c-1.11.248-2.246.37-3.385.362a19.914 19.914 0 0 1-3.35-.252l.128-.014a15.778 15.778 0 0 1-1.119-.194 12.355 12.355 0 0 1-2.288-.72 8.23 8.23 0 0 1-2.05-1.239 5.436 5.436 0 0 1-1.455-1.88 6.865 6.865 0 0 1-.668-2.274 3.986 3.986 0 0 1 .057-1.191c.079-.396.244-.77.484-1.097a2.39 2.39 0 0 1 1.09-.812c-4.359-.06-7.076 1.776-7.928 2.587-1.617 1.552-2.689 3.282-2.428 5.484.325 2.77 3.15 4.803 5.822 5.26 6.53 1.116 12.058 3.35 14.322 4.532 2.834 1.483 4.33.908 6.213.122 1.883-.785 5.427-.908 7.488-1.924 2.09-1.023 3.248-.432 4.132-1.915.884-1.483 4.275-2.066 6.663-8.58.087-.265.091-.549.014-.817a1.417 1.417 0 0 0-.448-.689 1.91 1.91 0 0 0-.645-.296 1.385 1.385 0 0 0-.652-.022 3.945 3.945 0 0 0-1.325.598 5.074 5.074 0 0 0-1.106.985c-.318.401-.606.826-.86 1.27a4.894 4.894 0 0 1-.5.689 1.81 1.81 0 0 1-.357.313l-.22.119-.17.08a8.25 8.25 0 0 0-2.416 1.804c-.079.094-.16.189-.234.285-.102.14-.23.259-.379.35l-.212.124-.215.08c-.136.05-.276.092-.418.124a12.51 12.51 0 0 1-1.622.261c-1.057.13-2.143.175-3.097.451a1.845 1.845 0 0 0-.326.125 4.332 4.332 0 0 1-.412.175c-.141.05-.3.066-.447.085a3.31 3.31 0 0 1-.432.023 8.337 8.337 0 0 1-1.636-.19 16.379 16.379 0 0 1-3.075-.965c1.054.195 2.108.375 3.151.5.513.064 1.03.09 1.546.08.126 0 .246-.023.368-.034.121-.01.225-.052.335-.075.102-.052.15-.063.311-.143.134-.071.274-.13.418-.175 1.102-.319 2.165-.366 3.216-.504a13.193 13.193 0 0 0 1.529-.26c.224-.05.438-.135.636-.249a.262.262 0 0 0 .102-.075.552.552 0 0 0 .098-.105c.082-.114.179-.224.26-.327a8.211 8.211 0 0 1 2.643-1.975l.195-.084.125-.072c.085-.057.164-.124.234-.2.157-.177.299-.368.423-.57.274-.465.584-.91.927-1.33.36-.43.786-.8 1.263-1.099.48-.318 1.02-.54 1.588-.65.31-.054.629-.031.927.066.303.113.566.31.758.565.206.296.353.627.436.976.248-.338.446-.708.587-1.1.233-.716.004-1.202-.49-1.422Zm.404 1.387a4.297 4.297 0 0 1-.467.925 2.81 2.81 0 0 0-.4-.826 1.783 1.783 0 0 0-.802-.596 2.02 2.02 0 0 0-.968-.07c-.58.114-1.131.34-1.622.663-.485.303-.918.68-1.283 1.116-.31.373-.591.77-.838 1.187l-.098.156a3.986 3.986 0 0 1-.418.572c-.065.069-.139.13-.22.18l-.116.067-.196.085a8.303 8.303 0 0 0-2.68 1.998 6.086 6.086 0 0 0-.266.334.312.312 0 0 1-.053.061l-.04.035a.155.155 0 0 1-.068.053l-.018.009a2.159 2.159 0 0 1-.605.234c-.5.116-1.008.203-1.519.259-.27.035-.535.065-.81.094-.82.067-1.63.205-2.425.413a2.515 2.515 0 0 0-.43.175c-.084.042-.136.065-.179.084-.043.02-.075.031-.12.054l-.125.03a4.132 4.132 0 0 1-.178.042l-.13.014c-.078 0-.154.016-.233.02-.512.009-1.023-.018-1.53-.081a50.107 50.107 0 0 1-3.147-.497l-.809-.15.758.316a16.48 16.48 0 0 0 3.092.969 7.378 7.378 0 0 0 1.965.175l.127-.009c.148-.019.301-.052.45-.086h.016c.141-.054.343-.14.421-.174.1-.05.204-.089.311-.118.74-.18 1.495-.297 2.256-.35.276-.027.552-.055.826-.09.55-.053 1.097-.14 1.636-.263l.102-.028c.11-.025.218-.058.323-.1l.229-.085c.068-.039.14-.08.2-.12.166-.091.31-.22.418-.373.054-.072.11-.14.17-.21l.059-.07a8.152 8.152 0 0 1 2.388-1.783l.179-.084.227-.122c.14-.092.269-.202.38-.327.19-.219.362-.453.511-.7.251-.44.535-.86.85-1.26a5.017 5.017 0 0 1 1.087-.965 3.929 3.929 0 0 1 1.296-.588c.2-.04.406-.034.602.021l.104.034c.186.05.36.134.514.248.201.17.346.394.419.645.072.25.068.515-.011.763-1.676 4.567-3.85 6.201-5.29 7.284-.614.462-1.1.827-1.368 1.282-.513.86-1.097.99-1.983 1.186a8.794 8.794 0 0 0-2.111.7c-1.115.545-2.671.83-4.175 1.107-1.262.232-2.453.451-3.309.808-1.765.734-3.287 1.37-6.136-.12-2.206-1.152-7.712-3.407-14.348-4.547-2.539-.45-5.418-2.414-5.736-5.199-.224-1.91.536-3.627 2.408-5.405.277-.262 2.769-2.506 7.47-2.564-.3.17-.56.4-.766.674-.25.334-.423.717-.507 1.123a3.988 3.988 0 0 0-.06 1.224c.09.798.318 1.575.676 2.297a5.536 5.536 0 0 0 1.48 1.912 8.404 8.404 0 0 0 2.07 1.25 12.471 12.471 0 0 0 2.799.824l-.11.012.612.1c1.113.176 2.238.26 3.365.252 1.147.007 2.29-.116 3.409-.366a4.025 4.025 0 0 1 1.49-.098c.41.055.818.132 1.22.231l.357.08c.565.138 1.14.229 1.72.272.295.014.593.014.893 0l.837-.053c1.071-.08 2.213-.174 3.36-.369.568-.095 1.129-.23 1.677-.402.536-.187 1.138-.399 1.608-.948.322-.378.375-1.023.266-1.478.273-.105 1.006-.422 1.322-.887l.059-.1c.1-.174.334-.582.668-1.075l.834-1.372c.626-.727 2.267-2.274 3.977-.902l.05.04.055-.035c.027-.016.652-.406 1.662.045.49.22.652.686.443 1.31Z" fill="url('#paint46_linear_724_14183')"/><path d="M15.829 25.638c-4.97-4.055-7.586-3.13-7.586-3.13C1.264 24.71-.17 32.629.015 35.07c.179 2.273 7.453 8.319 7.612-.336.156-8.456 8.201-9.096 8.201-9.096ZM1.569 35.855c-.518 0-.937-.638-.937-1.424 0-.785.42-1.425.937-1.425.519 0 .94.638.94 1.425s-.421 1.424-.94 1.424Z" fill="#313552"/><path d="M8.752 37.1c-.15.536-.514 1.575-1.216 2.2-.113.1-.091.176-.055.235.38.632 4.108 1.386 5.725 1.05-.87-.392-3.846-1.837-4.454-3.485Z" fill="#313552"/><path d="m8.833 36.73-.08-.497-.097.497c0 .017-.332 1.628-1.25 2.448a.333.333 0 0 0-.09.451c.383.637 3.02 1.225 4.863 1.225.443.014.885-.038 1.311-.154l.222-.072-.215-.09c-.039-.032-4.36-1.872-4.664-3.808ZM7.47 39.238c.947-.85 1.274-2.494 1.274-2.494.316 2.008 4.723 3.864 4.723 3.864-1.656.538-6.942-.522-5.997-1.372v.002Z" fill="url('#paint47_linear_724_14183')"/><path d="M8.753 36.742s-.327 1.644-1.274 2.494c-.947.85 4.341 1.91 5.997 1.37-.009 0-4.416-1.856-4.723-3.864ZM7.484 39.54c-.035-.06-.057-.135.056-.235.702-.63 1.072-1.665 1.216-2.2.604 1.642 3.58 3.087 4.445 3.472-1.624.35-5.341-.411-5.726-1.05l.01.013Z" fill="#313552"/><path d="M8.753 36.742s-.327 1.644-1.274 2.494c-.947.85 4.341 1.91 5.997 1.37-.009 0-4.416-1.856-4.723-3.864ZM7.484 39.54c-.035-.06-.057-.135.056-.235.702-.63 1.072-1.665 1.216-2.2.604 1.642 3.58 3.087 4.445 3.472-1.624.35-5.341-.411-5.726-1.05l.01.013Z" fill="url('#paint48_linear_724_14183')"/><path d="M59.486 10.216c-.993.077-4.246.463-5.6.787a.557.557 0 0 0-.31.191.537.537 0 0 0 0 .677.557.557 0 0 0 .31.192c1.082.248 1.99.962 2.985 1.833 2.578 2.256 4.84 10.128-2.005 12.318 0 0 4.74.524 8.25-1.123 2.322-1.095 5.94-6.859 2.237-11.772-1.685-2.234-3.048-3.324-5.867-3.103Zm1.197 1.733c-.736-.037-1.315-.385-1.295-.777.02-.391.634-.68 1.363-.64.729.04 1.316.385 1.295.775-.021.39-.634.679-1.37.642h.007ZM67.23 60.146H0v.702h67.23v-.702Z" fill="#313552"/></g><defs><linearGradient id="paint0_linear_724_14183" x1="20.969" y1="9.686" x2="43.008" y2="9.686" gradientUnits="userSpaceOnUse"><stop stop-color="#FDF188"/><stop offset=".48" stop-color="#CF9505"/><stop offset="1" stop-color="#8B5214"/></linearGradient><linearGradient id="paint1_linear_724_14183" x1="20.936" y1="5.603" x2="43.01" y2="5.603" gradientUnits="userSpaceOnUse"><stop stop-color="#FDF188"/><stop offset=".48" stop-color="#CF9505"/><stop offset="1" stop-color="#8B5214"/></linearGradient><linearGradient id="paint2_linear_724_14183" x1="20.936" y1="5.64" x2="43.01" y2="5.64" gradientUnits="userSpaceOnUse"><stop stop-color="#FDF188"/><stop offset=".48" stop-color="#CF9505"/><stop offset="1" stop-color="#8B5214"/></linearGradient><linearGradient id="paint3_linear_724_14183" x1="11.036" y1="16.364" x2="58.311" y2="16.364" gradientUnits="userSpaceOnUse"><stop stop-color="#FDF188"/><stop offset=".48" stop-color="#CF9505"/><stop offset="1" stop-color="#8B5214"/></linearGradient><linearGradient id="paint4_linear_724_14183" x1="20.936" y1="9.075" x2="43.01" y2="9.075" gradientUnits="userSpaceOnUse"><stop stop-color="#FDF188"/><stop offset=".48" stop-color="#CF9505"/><stop offset="1" stop-color="#8B5214"/></linearGradient><linearGradient id="paint5_linear_724_14183" x1="11.036" y1="9.075" x2="58.311" y2="9.075" gradientUnits="userSpaceOnUse"><stop stop-color="#FDF188"/><stop offset=".48" stop-color="#CF9505"/><stop offset="1" stop-color="#8B5214"/></linearGradient><linearGradient id="paint6_linear_724_14183" x1="20.936" y1="8.335" x2="43.01" y2="8.335" gradientUnits="userSpaceOnUse"><stop stop-color="#FDF188"/><stop offset=".48" stop-color="#CF9505"/><stop offset="1" stop-color="#8B5214"/></linearGradient><linearGradient id="paint7_linear_724_14183" x1="11.036" y1="8.335" x2="58.311" y2="8.335" gradientUnits="userSpaceOnUse"><stop stop-color="#FDF188"/><stop offset=".48" stop-color="#CF9505"/><stop offset="1" stop-color="#8B5214"/></linearGradient><linearGradient id="paint8_linear_724_14183" x1="20.969" y1="9.729" x2="43.008" y2="9.729" gradientUnits="userSpaceOnUse"><stop stop-color="#FDF188"/><stop offset=".48" stop-color="#CF9505"/><stop offset="1" stop-color="#8B5214"/></linearGradient><linearGradient id="paint9_linear_724_14183" x1="11.084" y1="9.729" x2="58.284" y2="9.729" gradientUnits="userSpaceOnUse"><stop stop-color="#FDF188"/><stop offset=".48" stop-color="#CF9505"/><stop offset="1" stop-color="#8B5214"/></linearGradient><linearGradient id="paint10_linear_724_14183" x1="11.036" y1="16.439" x2="58.311" y2="16.439" gradientUnits="userSpaceOnUse"><stop stop-color="#FDF188"/><stop offset=".48" stop-color="#CF9505"/><stop offset="1" stop-color="#8B5214"/></linearGradient><linearGradient id="paint11_linear_724_14183" x1="26.738" y1="-14.951" x2="26.738" y2="47.837" gradientUnits="userSpaceOnUse"><stop offset=".01" stop-color="#764611"/><stop offset=".16" stop-color="#BC6E15"/><stop offset=".25" stop-color="#BC7C12"/><stop offset=".34" stop-color="#DCA606"/><stop offset=".47" stop-color="#FFF29D"/><stop offset=".52" stop-color="#FEF18E"/><stop offset=".55" stop-color="#FEF182"/><stop offset=".69" stop-color="#DB9501"/><stop offset=".79" stop-color="#BC7C12"/><stop offset=".83" stop-color="#BC6E15"/><stop offset=".87" stop-color="#AC6314"/><stop offset=".95" stop-color="#8C4E13"/><stop offset="1" stop-color="#804612"/></linearGradient><linearGradient id="paint12_linear_724_14183" x1="30.991" y1="-14.951" x2="30.991" y2="47.837" gradientUnits="userSpaceOnUse"><stop offset=".01" stop-color="#764611"/><stop offset=".16" stop-color="#BC6E15"/><stop offset=".25" stop-color="#BC7C12"/><stop offset=".34" stop-color="#DCA606"/><stop offset=".47" stop-color="#FFF29D"/><stop offset=".52" stop-color="#FEF18E"/><stop offset=".55" stop-color="#FEF182"/><stop offset=".69" stop-color="#DB9501"/><stop offset=".79" stop-color="#BC7C12"/><stop offset=".83" stop-color="#BC6E15"/><stop offset=".87" stop-color="#AC6314"/><stop offset=".95" stop-color="#8C4E13"/><stop offset="1" stop-color="#804612"/></linearGradient><linearGradient id="paint13_linear_724_14183" x1="30.82" y1="-14.951" x2="30.82" y2="47.837" gradientUnits="userSpaceOnUse"><stop offset=".01" stop-color="#764611"/><stop offset=".16" stop-color="#BC6E15"/><stop offset=".25" stop-color="#BC7C12"/><stop offset=".34" stop-color="#DCA606"/><stop offset=".47" stop-color="#FFF29D"/><stop offset=".52" stop-color="#FEF18E"/><stop offset=".55" stop-color="#FEF182"/><stop offset=".69" stop-color="#DB9501"/><stop offset=".79" stop-color="#BC7C12"/><stop offset=".83" stop-color="#BC6E15"/><stop offset=".87" stop-color="#AC6314"/><stop offset=".95" stop-color="#8C4E13"/><stop offset="1" stop-color="#804612"/></linearGradient><linearGradient id="paint14_linear_724_14183" x1="35.298" y1="-14.951" x2="35.298" y2="47.837" gradientUnits="userSpaceOnUse"><stop offset=".01" stop-color="#764611"/><stop offset=".16" stop-color="#BC6E15"/><stop offset=".25" stop-color="#BC7C12"/><stop offset=".34" stop-color="#DCA606"/><stop offset=".47" stop-color="#FFF29D"/><stop offset=".52" stop-color="#FEF18E"/><stop offset=".55" stop-color="#FEF182"/><stop offset=".69" stop-color="#DB9501"/><stop offset=".79" stop-color="#BC7C12"/><stop offset=".83" stop-color="#BC6E15"/><stop offset=".87" stop-color="#AC6314"/><stop offset=".95" stop-color="#8C4E13"/><stop offset="1" stop-color="#804612"/></linearGradient><linearGradient id="paint15_linear_724_14183" x1="35.016" y1="-14.951" x2="35.016" y2="47.837" gradientUnits="userSpaceOnUse"><stop offset=".01" stop-color="#764611"/><stop offset=".16" stop-color="#BC6E15"/><stop offset=".25" stop-color="#BC7C12"/><stop offset=".34" stop-color="#DCA606"/><stop offset=".47" stop-color="#FFF29D"/><stop offset=".52" stop-color="#FEF18E"/><stop offset=".55" stop-color="#FEF182"/><stop offset=".69" stop-color="#DB9501"/><stop offset=".79" stop-color="#BC7C12"/><stop offset=".83" stop-color="#BC6E15"/><stop offset=".87" stop-color="#AC6314"/><stop offset=".95" stop-color="#8C4E13"/><stop offset="1" stop-color="#804612"/></linearGradient><linearGradient id="paint16_linear_724_14183" x1="34.986" y1="-14.951" x2="34.986" y2="47.837" gradientUnits="userSpaceOnUse"><stop offset=".01" stop-color="#764611"/><stop offset=".16" stop-color="#BC6E15"/><stop offset=".25" stop-color="#BC7C12"/><stop offset=".34" stop-color="#DCA606"/><stop offset=".47" stop-color="#FFF29D"/><stop offset=".52" stop-color="#FEF18E"/><stop offset=".55" stop-color="#FEF182"/><stop offset=".69" stop-color="#DB9501"/><stop offset=".79" stop-color="#BC7C12"/><stop offset=".83" stop-color="#BC6E15"/><stop offset=".87" stop-color="#AC6314"/><stop offset=".95" stop-color="#8C4E13"/><stop offset="1" stop-color="#804612"/></linearGradient><linearGradient id="paint17_linear_724_14183" x1="38.971" y1="-14.951" x2="38.971" y2="47.837" gradientUnits="userSpaceOnUse"><stop offset=".01" stop-color="#764611"/><stop offset=".16" stop-color="#BC6E15"/><stop offset=".25" stop-color="#BC7C12"/><stop offset=".34" stop-color="#DCA606"/><stop offset=".47" stop-color="#FFF29D"/><stop offset=".52" stop-color="#FEF18E"/><stop offset=".55" stop-color="#FEF182"/><stop offset=".69" stop-color="#DB9501"/><stop offset=".79" stop-color="#BC7C12"/><stop offset=".83" stop-color="#BC6E15"/><stop offset=".87" stop-color="#AC6314"/><stop offset=".95" stop-color="#8C4E13"/><stop offset="1" stop-color="#804612"/></linearGradient><linearGradient id="paint18_linear_724_14183" x1="39.504" y1="-14.951" x2="39.504" y2="47.837" gradientUnits="userSpaceOnUse"><stop offset=".01" stop-color="#764611"/><stop offset=".16" stop-color="#BC6E15"/><stop offset=".25" stop-color="#BC7C12"/><stop offset=".34" stop-color="#DCA606"/><stop offset=".47" stop-color="#FFF29D"/><stop offset=".52" stop-color="#FEF18E"/><stop offset=".55" stop-color="#FEF182"/><stop offset=".69" stop-color="#DB9501"/><stop offset=".79" stop-color="#BC7C12"/><stop offset=".83" stop-color="#BC6E15"/><stop offset=".87" stop-color="#AC6314"/><stop offset=".95" stop-color="#8C4E13"/><stop offset="1" stop-color="#804612"/></linearGradient><linearGradient id="paint19_linear_724_14183" x1="43.501" y1="-14.951" x2="43.501" y2="47.837" gradientUnits="userSpaceOnUse"><stop offset=".01" stop-color="#764611"/><stop offset=".16" stop-color="#BC6E15"/><stop offset=".25" stop-color="#BC7C12"/><stop offset=".34" stop-color="#DCA606"/><stop offset=".47" stop-color="#FFF29D"/><stop offset=".52" stop-color="#FEF18E"/><stop offset=".55" stop-color="#FEF182"/><stop offset=".69" stop-color="#DB9501"/><stop offset=".79" stop-color="#BC7C12"/><stop offset=".83" stop-color="#BC6E15"/><stop offset=".87" stop-color="#AC6314"/><stop offset=".95" stop-color="#8C4E13"/><stop offset="1" stop-color="#804612"/></linearGradient><linearGradient id="paint20_linear_724_14183" x1="17.965" y1="10.852" x2="56.652" y2="60.38" gradientUnits="userSpaceOnUse"><stop offset=".01" stop-color="#764611"/><stop offset=".16" stop-color="#BC6E15"/><stop offset=".25" stop-color="#BC7C12"/><stop offset=".34" stop-color="#DCA606"/><stop offset=".47" stop-color="#FFF29D"/><stop offset=".52" stop-color="#FEF18E"/><stop offset=".55" stop-color="#FEF182"/><stop offset=".69" stop-color="#DB9501"/><stop offset=".79" stop-color="#BC7C12"/><stop offset=".83" stop-color="#BC6E15"/><stop offset=".87" stop-color="#AC6314"/><stop offset=".95" stop-color="#8C4E13"/><stop offset="1" stop-color="#804612"/></linearGradient><linearGradient id="paint21_linear_724_14183" x1="15.437" y1="12.829" x2="54.125" y2="62.355" gradientUnits="userSpaceOnUse"><stop offset=".01" stop-color="#764611"/><stop offset=".16" stop-color="#BC6E15"/><stop offset=".25" stop-color="#BC7C12"/><stop offset=".34" stop-color="#DCA606"/><stop offset=".47" stop-color="#FFF29D"/><stop offset=".52" stop-color="#FEF18E"/><stop offset=".55" stop-color="#FEF182"/><stop offset=".69" stop-color="#DB9501"/><stop offset=".79" stop-color="#BC7C12"/><stop offset=".83" stop-color="#BC6E15"/><stop offset=".87" stop-color="#AC6314"/><stop offset=".95" stop-color="#8C4E13"/><stop offset="1" stop-color="#804612"/></linearGradient><linearGradient id="paint22_linear_724_14183" x1="17.279" y1="11.389" x2="55.966" y2="60.917" gradientUnits="userSpaceOnUse"><stop offset=".01" stop-color="#764611"/><stop offset=".16" stop-color="#BC6E15"/><stop offset=".25" stop-color="#BC7C12"/><stop offset=".34" stop-color="#DCA606"/><stop offset=".47" stop-color="#FFF29D"/><stop offset=".52" stop-color="#FEF18E"/><stop offset=".55" stop-color="#FEF182"/><stop offset=".69" stop-color="#DB9501"/><stop offset=".79" stop-color="#BC7C12"/><stop offset=".83" stop-color="#BC6E15"/><stop offset=".87" stop-color="#AC6314"/><stop offset=".95" stop-color="#8C4E13"/><stop offset="1" stop-color="#804612"/></linearGradient><linearGradient id="paint23_linear_724_14183" x1="19.808" y1="9.413" x2="58.496" y2="58.941" gradientUnits="userSpaceOnUse"><stop offset=".01" stop-color="#764611"/><stop offset=".16" stop-color="#BC6E15"/><stop offset=".25" stop-color="#BC7C12"/><stop offset=".34" stop-color="#DCA606"/><stop offset=".47" stop-color="#FFF29D"/><stop offset=".52" stop-color="#FEF18E"/><stop offset=".55" stop-color="#FEF182"/><stop offset=".69" stop-color="#DB9501"/><stop offset=".79" stop-color="#BC7C12"/><stop offset=".83" stop-color="#BC6E15"/><stop offset=".87" stop-color="#AC6314"/><stop offset=".95" stop-color="#8C4E13"/><stop offset="1" stop-color="#804612"/></linearGradient><linearGradient id="paint24_linear_724_14183" x1="15.821" y1="12.528" x2="54.509" y2="62.056" gradientUnits="userSpaceOnUse"><stop offset=".01" stop-color="#764611"/><stop offset=".16" stop-color="#BC6E15"/><stop offset=".25" stop-color="#BC7C12"/><stop offset=".34" stop-color="#DCA606"/><stop offset=".47" stop-color="#FFF29D"/><stop offset=".52" stop-color="#FEF18E"/><stop offset=".55" stop-color="#FEF182"/><stop offset=".69" stop-color="#DB9501"/><stop offset=".79" stop-color="#BC7C12"/><stop offset=".83" stop-color="#BC6E15"/><stop offset=".87" stop-color="#AC6314"/><stop offset=".95" stop-color="#8C4E13"/><stop offset="1" stop-color="#804612"/></linearGradient><linearGradient id="paint25_linear_724_14183" x1="17.581" y1="11.153" x2="56.269" y2="60.681" gradientUnits="userSpaceOnUse"><stop offset=".01" stop-color="#764611"/><stop offset=".16" stop-color="#BC6E15"/><stop offset=".25" stop-color="#BC7C12"/><stop offset=".34" stop-color="#DCA606"/><stop offset=".47" stop-color="#FFF29D"/><stop offset=".52" stop-color="#FEF18E"/><stop offset=".55" stop-color="#FEF182"/><stop offset=".69" stop-color="#DB9501"/><stop offset=".79" stop-color="#BC7C12"/><stop offset=".83" stop-color="#BC6E15"/><stop offset=".87" stop-color="#AC6314"/><stop offset=".95" stop-color="#8C4E13"/><stop offset="1" stop-color="#804612"/></linearGradient><linearGradient id="paint26_linear_724_14183" x1="19.289" y1="9.819" x2="57.976" y2="59.347" gradientUnits="userSpaceOnUse"><stop offset=".01" stop-color="#764611"/><stop offset=".16" stop-color="#BC6E15"/><stop offset=".25" stop-color="#BC7C12"/><stop offset=".34" stop-color="#DCA606"/><stop offset=".47" stop-color="#FFF29D"/><stop offset=".52" stop-color="#FEF18E"/><stop offset=".55" stop-color="#FEF182"/><stop offset=".69" stop-color="#DB9501"/><stop offset=".79" stop-color="#BC7C12"/><stop offset=".83" stop-color="#BC6E15"/><stop offset=".87" stop-color="#AC6314"/><stop offset=".95" stop-color="#8C4E13"/><stop offset="1" stop-color="#804612"/></linearGradient><linearGradient id="paint27_linear_724_14183" x1="21.82" y1="7.842" x2="60.508" y2="57.37" gradientUnits="userSpaceOnUse"><stop offset=".01" stop-color="#764611"/><stop offset=".16" stop-color="#BC6E15"/><stop offset=".25" stop-color="#BC7C12"/><stop offset=".34" stop-color="#DCA606"/><stop offset=".47" stop-color="#FFF29D"/><stop offset=".52" stop-color="#FEF18E"/><stop offset=".55" stop-color="#FEF182"/><stop offset=".69" stop-color="#DB9501"/><stop offset=".79" stop-color="#BC7C12"/><stop offset=".83" stop-color="#BC6E15"/><stop offset=".87" stop-color="#AC6314"/><stop offset=".95" stop-color="#8C4E13"/><stop offset="1" stop-color="#804612"/></linearGradient><linearGradient id="paint28_linear_724_14183" x1="33.282" y1="24.377" x2="91.445" y2="89.358" gradientUnits="userSpaceOnUse"><stop offset=".01" stop-color="#764611"/><stop offset=".16" stop-color="#BC6E15"/><stop offset=".25" stop-color="#BC7C12"/><stop offset=".34" stop-color="#DCA606"/><stop offset=".47" stop-color="#FFF29D"/><stop offset=".52" stop-color="#FEF18E"/><stop offset=".55" stop-color="#FEF182"/><stop offset=".69" stop-color="#DB9501"/><stop offset=".79" stop-color="#BC7C12"/><stop offset=".83" stop-color="#BC6E15"/><stop offset=".87" stop-color="#AC6314"/><stop offset=".95" stop-color="#8C4E13"/><stop offset="1" stop-color="#804612"/></linearGradient><linearGradient id="paint29_linear_724_14183" x1="35.815" y1="22.108" x2="93.978" y2="87.091" gradientUnits="userSpaceOnUse"><stop offset=".01" stop-color="#764611"/><stop offset=".16" stop-color="#BC6E15"/><stop offset=".25" stop-color="#BC7C12"/><stop offset=".34" stop-color="#DCA606"/><stop offset=".47" stop-color="#FFF29D"/><stop offset=".52" stop-color="#FEF18E"/><stop offset=".55" stop-color="#FEF182"/><stop offset=".69" stop-color="#DB9501"/><stop offset=".79" stop-color="#BC7C12"/><stop offset=".83" stop-color="#BC6E15"/><stop offset=".87" stop-color="#AC6314"/><stop offset=".95" stop-color="#8C4E13"/><stop offset="1" stop-color="#804612"/></linearGradient><linearGradient id="paint30_linear_724_14183" x1="37.98" y1="20.172" x2="96.143" y2="85.153" gradientUnits="userSpaceOnUse"><stop offset=".01" stop-color="#764611"/><stop offset=".16" stop-color="#BC6E15"/><stop offset=".25" stop-color="#BC7C12"/><stop offset=".34" stop-color="#DCA606"/><stop offset=".47" stop-color="#FFF29D"/><stop offset=".52" stop-color="#FEF18E"/><stop offset=".55" stop-color="#FEF182"/><stop offset=".69" stop-color="#DB9501"/><stop offset=".79" stop-color="#BC7C12"/><stop offset=".83" stop-color="#BC6E15"/><stop offset=".87" stop-color="#AC6314"/><stop offset=".95" stop-color="#8C4E13"/><stop offset="1" stop-color="#804612"/></linearGradient><linearGradient id="paint31_linear_724_14183" x1="37.163" y1="20.901" x2="95.326" y2="85.884" gradientUnits="userSpaceOnUse"><stop offset=".01" stop-color="#764611"/><stop offset=".16" stop-color="#BC6E15"/><stop offset=".25" stop-color="#BC7C12"/><stop offset=".34" stop-color="#DCA606"/><stop offset=".47" stop-color="#FFF29D"/><stop offset=".52" stop-color="#FEF18E"/><stop offset=".55" stop-color="#FEF182"/><stop offset=".69" stop-color="#DB9501"/><stop offset=".79" stop-color="#BC7C12"/><stop offset=".83" stop-color="#BC6E15"/><stop offset=".87" stop-color="#AC6314"/><stop offset=".95" stop-color="#8C4E13"/><stop offset="1" stop-color="#804612"/></linearGradient><linearGradient id="paint32_linear_724_14183" x1="34.578" y1="23.215" x2="92.742" y2="88.196" gradientUnits="userSpaceOnUse"><stop offset=".01" stop-color="#764611"/><stop offset=".16" stop-color="#BC6E15"/><stop offset=".25" stop-color="#BC7C12"/><stop offset=".34" stop-color="#DCA606"/><stop offset=".47" stop-color="#FFF29D"/><stop offset=".52" stop-color="#FEF18E"/><stop offset=".55" stop-color="#FEF182"/><stop offset=".69" stop-color="#DB9501"/><stop offset=".79" stop-color="#BC7C12"/><stop offset=".83" stop-color="#BC6E15"/><stop offset=".87" stop-color="#AC6314"/><stop offset=".95" stop-color="#8C4E13"/><stop offset="1" stop-color="#804612"/></linearGradient><linearGradient id="paint33_linear_724_14183" x1="37.667" y1="20.45" x2="95.83" y2="85.431" gradientUnits="userSpaceOnUse"><stop offset=".01" stop-color="#764611"/><stop offset=".16" stop-color="#BC6E15"/><stop offset=".25" stop-color="#BC7C12"/><stop offset=".34" stop-color="#DCA606"/><stop offset=".47" stop-color="#FFF29D"/><stop offset=".52" stop-color="#FEF18E"/><stop offset=".55" stop-color="#FEF182"/><stop offset=".69" stop-color="#DB9501"/><stop offset=".79" stop-color="#BC7C12"/><stop offset=".83" stop-color="#BC6E15"/><stop offset=".87" stop-color="#AC6314"/><stop offset=".95" stop-color="#8C4E13"/><stop offset="1" stop-color="#804612"/></linearGradient><linearGradient id="paint34_linear_724_14183" x1="40.252" y1="18.138" x2="98.413" y2="83.118" gradientUnits="userSpaceOnUse"><stop offset=".01" stop-color="#764611"/><stop offset=".16" stop-color="#BC6E15"/><stop offset=".25" stop-color="#BC7C12"/><stop offset=".34" stop-color="#DCA606"/><stop offset=".47" stop-color="#FFF29D"/><stop offset=".52" stop-color="#FEF18E"/><stop offset=".55" stop-color="#FEF182"/><stop offset=".69" stop-color="#DB9501"/><stop offset=".79" stop-color="#BC7C12"/><stop offset=".83" stop-color="#BC6E15"/><stop offset=".87" stop-color="#AC6314"/><stop offset=".95" stop-color="#8C4E13"/><stop offset="1" stop-color="#804612"/></linearGradient><linearGradient id="paint35_linear_724_14183" x1="43.085" y1="15.601" x2="101.247" y2="80.584" gradientUnits="userSpaceOnUse"><stop offset=".01" stop-color="#764611"/><stop offset=".16" stop-color="#BC6E15"/><stop offset=".25" stop-color="#BC7C12"/><stop offset=".34" stop-color="#DCA606"/><stop offset=".47" stop-color="#FFF29D"/><stop offset=".52" stop-color="#FEF18E"/><stop offset=".55" stop-color="#FEF182"/><stop offset=".69" stop-color="#DB9501"/><stop offset=".79" stop-color="#BC7C12"/><stop offset=".83" stop-color="#BC6E15"/><stop offset=".87" stop-color="#AC6314"/><stop offset=".95" stop-color="#8C4E13"/><stop offset="1" stop-color="#804612"/></linearGradient><linearGradient id="paint36_linear_724_14183" x1="40.502" y1="17.914" x2="98.665" y2="82.894" gradientUnits="userSpaceOnUse"><stop offset=".01" stop-color="#764611"/><stop offset=".16" stop-color="#BC6E15"/><stop offset=".25" stop-color="#BC7C12"/><stop offset=".34" stop-color="#DCA606"/><stop offset=".47" stop-color="#FFF29D"/><stop offset=".52" stop-color="#FEF18E"/><stop offset=".55" stop-color="#FEF182"/><stop offset=".69" stop-color="#DB9501"/><stop offset=".79" stop-color="#BC7C12"/><stop offset=".83" stop-color="#BC6E15"/><stop offset=".87" stop-color="#AC6314"/><stop offset=".95" stop-color="#8C4E13"/><stop offset="1" stop-color="#804612"/></linearGradient><linearGradient id="paint37_linear_724_14183" x1="17.813" y1="30.945" x2="44.85" y2="30.945" gradientUnits="userSpaceOnUse"><stop stop-color="#FDF188"/><stop offset=".48" stop-color="#CF9505"/><stop offset="1" stop-color="#8B5214"/></linearGradient><linearGradient id="paint38_linear_724_14183" x1="39.321" y1="30.394" x2="39.526" y2="30.394" gradientUnits="userSpaceOnUse"><stop offset=".01" stop-color="#764611"/><stop offset=".16" stop-color="#BC6E15"/><stop offset=".25" stop-color="#BC7C12"/><stop offset=".34" stop-color="#DCA606"/><stop offset=".47" stop-color="#FFF29D"/><stop offset=".52" stop-color="#FEF18E"/><stop offset=".55" stop-color="#FEF182"/><stop offset=".69" stop-color="#DB9501"/><stop offset=".79" stop-color="#BC7C12"/><stop offset=".83" stop-color="#BC6E15"/><stop offset=".87" stop-color="#AC6314"/><stop offset=".95" stop-color="#8C4E13"/><stop offset="1" stop-color="#804612"/></linearGradient><linearGradient id="paint39_linear_724_14183" x1="17.835" y1="30.394" x2="44.841" y2="30.394" gradientUnits="userSpaceOnUse"><stop stop-color="#FDF188"/><stop offset=".48" stop-color="#CF9505"/><stop offset="1" stop-color="#8B5214"/></linearGradient><linearGradient id="paint40_linear_724_14183" x1="17.8" y1="30.957" x2="44.85" y2="30.957" gradientUnits="userSpaceOnUse"><stop stop-color="#FDF188"/><stop offset=".48" stop-color="#CF9505"/><stop offset="1" stop-color="#8B5214"/></linearGradient><linearGradient id="paint41_linear_724_14183" x1="8.885" y1="35.664" x2="54.72" y2="35.664" gradientUnits="userSpaceOnUse"><stop stop-color="#FDF188"/><stop offset=".48" stop-color="#CF9505"/><stop offset="1" stop-color="#8B5214"/></linearGradient><linearGradient id="paint42_linear_724_14183" x1="36.955" y1="18.722" x2="58.327" y2="42.323" gradientUnits="userSpaceOnUse"><stop offset=".01" stop-color="#764611"/><stop offset=".16" stop-color="#BC6E15"/><stop offset=".25" stop-color="#BC7C12"/><stop offset=".34" stop-color="#DCA606"/><stop offset=".47" stop-color="#FFF29D"/><stop offset=".52" stop-color="#FEF18E"/><stop offset=".55" stop-color="#FEF182"/><stop offset=".69" stop-color="#DB9501"/><stop offset=".79" stop-color="#BC7C12"/><stop offset=".83" stop-color="#BC6E15"/><stop offset=".87" stop-color="#AC6314"/><stop offset=".95" stop-color="#8C4E13"/><stop offset="1" stop-color="#804612"/></linearGradient><linearGradient id="paint43_linear_724_14183" x1="4.257" y1="30.246" x2="37.069" y2="30.246" gradientUnits="userSpaceOnUse"><stop stop-color="#FDF188"/><stop offset=".48" stop-color="#CF9505"/><stop offset="1" stop-color="#8B5214"/></linearGradient><linearGradient id="paint44_linear_724_14183" x1="17.8" y1="30.957" x2="44.85" y2="30.957" gradientUnits="userSpaceOnUse"><stop stop-color="#FDF188"/><stop offset=".48" stop-color="#CF9505"/><stop offset="1" stop-color="#8B5214"/></linearGradient><linearGradient id="paint45_linear_724_14183" x1="8.885" y1="30.957" x2="54.72" y2="30.957" gradientUnits="userSpaceOnUse"><stop stop-color="#FDF188"/><stop offset=".48" stop-color="#CF9505"/><stop offset="1" stop-color="#8B5214"/></linearGradient><linearGradient id="paint46_linear_724_14183" x1="8.885" y1="35.664" x2="54.72" y2="35.664" gradientUnits="userSpaceOnUse"><stop stop-color="#FDF188"/><stop offset=".48" stop-color="#CF9505"/><stop offset="1" stop-color="#8B5214"/></linearGradient><linearGradient id="paint47_linear_724_14183" x1="7.268" y1="38.536" x2="13.717" y2="38.536" gradientUnits="userSpaceOnUse"><stop stop-color="#FDF188"/><stop offset=".48" stop-color="#CF9505"/><stop offset="1" stop-color="#8B5214"/></linearGradient><linearGradient id="paint48_linear_724_14183" x1="7.268" y1="38.746" x2="13.717" y2="38.746" gradientUnits="userSpaceOnUse"><stop stop-color="#FDF188"/><stop offset=".48" stop-color="#CF9505"/><stop offset="1" stop-color="#8B5214"/></linearGradient><clipPath id="clip0_724_14183"><path fill="#fff" d="M0 0h166v64H0z"/></clipPath></defs></svg>